<svg width="886" height="886" viewBox="0 0 886 886" fill="none" xmlns="http://www.w3.org/2000/svg">
<style>
  .logo-path {
    fill: transparent;
    stroke: var(--stroke-color, currentColor);
    stroke-width: 2.6;
    stroke-linecap: round;
    stroke-linejoin: round;
    stroke-dasharray: var(--path-length, 1200);
    stroke-dashoffset: var(--path-length, 1200);
    animation: dash 10s ease forwards, logo-fill 1.2s ease forwards 9.2s;
    animation-delay: var(--path-delay, 0s);
  }

  @keyframes dash {
    to {
      stroke-dashoffset: 0;
    }
  }

  @keyframes logo-fill {
    to {
      fill: var(--fill-color, currentColor);
      stroke-opacity: 0.28;
    }
  }
</style>
<script><![CDATA[
  (function () {
    var svg = document.currentScript && document.currentScript.ownerSVGElement;
    if (!svg) return;
    var layers = ["#3sloj", "#2sloj", "#1sloj"];
    var paths = [];
    layers.forEach(function (sel) {
      var g = svg.querySelector(sel);
      if (g) {
        paths = paths.concat(Array.from(g.querySelectorAll("path")));
      }
    });
    // fallback include any remaining paths
    svg.querySelectorAll("path").forEach(function (p) {
      if (paths.indexOf(p) === -1) paths.push(p);
    });
    paths.forEach(function (path, idx) {
      var fill = path.getAttribute("fill") || "#3d4a2c";
      var length = Math.ceil(path.getTotalLength ? path.getTotalLength() : 1200);
      path.style.setProperty("--fill-color", fill);
      path.style.setProperty("--stroke-color", fill);
      path.style.setProperty("--path-length", length);
      path.style.setProperty("--path-delay", (idx * 0.12).toFixed(2) + "s");
      path.setAttribute("stroke", fill);
      path.setAttribute("fill", "transparent");
      path.classList.add("logo-path");
    });
  })();
]]></script>
<g id="Simplification (2) 1">
<g id="3sloj">
<g id="Vector">
<path d="M324.516 200.32C331.086 205.408 337.829 210.271 344.528 215.186C348.523 218.118 352.511 221.059 356.5 224C358.083 225.167 359.667 226.333 361.25 227.5C364.417 229.833 367.583 232.167 370.75 234.5C371.534 235.078 372.318 235.655 373.126 236.25C374.707 237.415 376.288 238.58 377.868 239.746C381.863 242.689 385.858 245.631 389.856 248.57C397.26 254.016 404.654 259.475 412 265C418.045 269.544 424.108 274.064 430.188 278.563C430.99 279.159 431.792 279.755 432.619 280.369C436.32 283.102 439.984 285.738 444 288C451.027 283.077 457.976 278.098 464.688 272.75C472.48 266.551 480.505 260.681 488.54 254.803C490.966 253.025 493.386 251.241 495.805 249.453C502.732 244.334 509.667 239.228 516.667 234.209C525.049 228.198 533.277 222.009 541.462 215.733C546.801 211.649 552.183 207.655 557.689 203.798C561.099 201.398 564.433 198.918 567.738 196.375C591.591 178.051 613.211 166.635 644 169C660.243 171.213 674.581 178.442 687 189C687.816 189.626 688.632 190.253 689.473 190.898C703.752 202.772 713.424 222.877 716 241C718.52 274.956 707.272 296.356 686.293 321.957C683.313 325.601 680.395 329.289 677.5 333C673.018 338.74 668.441 344.397 663.836 350.039C660.345 354.325 656.902 358.643 653.5 363C649.558 368.048 645.55 373.038 641.5 378C634.525 386.549 627.58 395.141 621 404C623.583 405.46 626.166 406.918 628.75 408.375C629.48 408.787 630.209 409.2 630.961 409.625C631.67 410.025 632.379 410.424 633.109 410.836C633.759 411.203 634.408 411.569 635.077 411.947C637.028 413.016 639.004 414.018 641 415C639.255 419.052 636.577 422.306 633.875 425.75C633.407 426.352 632.939 426.954 632.457 427.574C631.308 429.052 630.154 430.526 629 432C623.808 431.428 619.69 428.902 615.188 426.438C614.399 426.013 613.611 425.588 612.799 425.15C610.863 424.106 608.93 423.056 607 422C602.312 427.13 597.913 432.253 594 438C586.818 435.726 579.924 432.964 573 430C573.352 429.539 573.704 429.077 574.066 428.602C578.184 423.162 582.116 417.608 586 412C584.742 411.649 583.484 411.299 582.188 410.938C578.796 409.932 575.484 408.822 572.195 407.523C549.065 398.435 524.452 393.136 500 389C498.437 388.735 498.437 388.735 496.842 388.464C444.969 380.051 388.95 384.355 338.668 399.476C331.053 401.726 331.053 401.726 328 401C325.763 398.962 324.031 396.624 322.25 394.188C321.756 393.545 321.263 392.902 320.754 392.24C318.651 389.46 317.113 387.34 316 384C353.129 370.78 392.617 363.928 432 363C432.859 362.978 433.718 362.956 434.603 362.934C489.026 361.747 545.824 371.199 595.796 393.357C598.376 394.11 599.536 394.043 602 393C603.538 391.651 603.538 391.651 604.848 389.895C605.623 388.925 605.623 388.925 606.415 387.935C606.958 387.235 607.502 386.534 608.063 385.812C608.635 385.091 609.207 384.37 609.797 383.627C611.54 381.425 613.271 379.214 615 377C615.969 375.771 616.939 374.544 617.91 373.316C620.619 369.887 623.311 366.445 626 363C632.308 354.919 638.683 346.904 645.164 338.961C649.113 334.113 652.992 329.215 656.838 324.285C659.775 320.53 662.765 316.825 665.787 313.139C688.761 285.323 688.761 285.323 695.383 250.57C693.403 232.105 685.624 215.549 671.106 203.586C658.16 193.834 642.264 188.651 626 190C609.11 192.637 596.116 200.866 582.951 211.45C578.869 214.694 574.71 217.84 570.563 221C569.648 221.698 568.733 222.396 567.79 223.115C562.387 227.226 556.933 231.237 551.378 235.139C546.066 238.897 540.913 242.853 535.75 246.813C528.402 252.446 520.982 257.956 513.456 263.349C508.614 266.822 503.821 270.351 499.063 273.938C490.911 280.081 482.696 286.136 474.472 292.183C470.251 295.286 466.031 298.393 461.813 301.5C461.047 302.063 460.282 302.626 459.493 303.207C458.392 304.017 458.392 304.017 457.27 304.844C456.559 305.361 455.848 305.878 455.116 306.41C453.662 307.502 452.241 308.638 450.849 309.809C448.948 311.378 447.155 312.802 445 314C442.363 313.617 442.363 313.617 440 312C439.086 311.425 438.172 310.85 437.231 310.258C429.808 305.056 422.526 299.693 415.293 294.23C410.783 290.828 406.239 287.473 401.688 284.125C400.893 283.54 400.098 282.955 399.279 282.353C397.661 281.162 396.042 279.972 394.423 278.782C390.447 275.858 386.474 272.929 382.5 270C380.917 268.833 379.333 267.667 377.75 266.5L349.25 245.5C348.467 244.923 347.683 244.345 346.876 243.75C345.29 242.582 343.705 241.414 342.121 240.246C338.191 237.349 334.259 234.455 330.32 231.57C328.755 230.422 327.19 229.274 325.625 228.125C324.851 227.557 324.077 226.989 323.279 226.404C318.084 222.578 312.959 218.67 307.853 214.727C290.584 201.417 272.907 188.079 250 190C232.473 192.588 216.277 199.91 205 214C194.255 230.305 189.067 247.612 192.649 267.125C196.502 282.934 204.97 293.849 215.275 305.948C217.78 308.928 220.177 311.987 222.563 315.062C226.481 320.093 230.468 325.061 234.5 330C239.008 335.523 243.449 341.092 247.836 346.711C251.338 351.184 254.908 355.599 258.5 360C263.008 365.523 267.449 371.092 271.836 376.711C275.338 381.184 278.908 385.599 282.5 390C287.008 395.523 291.449 401.092 295.836 406.711C299.338 411.184 302.908 415.599 306.5 420C311.008 425.523 315.449 431.092 319.836 436.711C323.338 441.184 326.908 445.599 330.5 450C335.008 455.523 339.449 461.092 343.836 466.711C347.338 471.184 350.908 475.599 354.5 480C359.009 485.525 363.452 491.093 367.838 496.715C370.774 500.469 373.764 504.174 376.786 507.859C411.967 550.798 431.542 596.274 426.684 652.673C425.179 665.148 422.314 677.21 418 689C417.356 690.802 417.356 690.802 416.699 692.641C405.399 722.562 386.195 748.336 361 768C360.006 768.784 359.012 769.567 357.988 770.375C328.887 792.601 292.96 803.479 256.625 803.375C255.838 803.374 255.052 803.373 254.241 803.371C210.484 803.19 169.821 787.239 138 757C137.167 756.223 137.167 756.223 136.316 755.431C105.818 726.876 85.4857 685.819 83.8739 643.702C83.7932 639.863 83.7535 636.027 83.7501 632.188C83.7494 631.502 83.7487 630.816 83.748 630.11C83.7661 618.519 84.5308 607.347 87.0001 596C87.1664 595.218 87.3327 594.436 87.504 593.63C94.9797 559.609 113.945 531.503 137 506C137.497 505.447 137.993 504.894 138.505 504.324C143.577 498.683 148.759 493.184 154.168 487.863C156.049 485.95 157.811 483.969 159.563 481.938C166.331 474.098 166.331 474.098 170 471H172C173.968 473.21 175.806 475.423 177.625 477.75C178.399 478.701 178.399 478.701 179.188 479.672C179.675 480.291 180.162 480.909 180.664 481.547C181.112 482.112 181.56 482.678 182.022 483.261C183 485 183 485 183 489C181.215 491.207 181.215 491.207 178.723 493.598C177.362 494.925 177.362 494.925 175.975 496.279C175.005 497.208 174.034 498.136 173.063 499.062C165.83 506.023 159.238 513.135 153 521C151.929 522.283 150.852 523.562 149.77 524.836C121.301 558.718 101.748 598.063 105.309 643.297C109.004 683.678 127.691 720.091 158.293 746.789C189.959 772.652 228.842 784.884 269.674 781.798C295.501 779.159 320.93 770.264 342 755C342.569 754.591 343.138 754.181 343.724 753.759C376.793 729.634 398.248 694.002 404.746 653.598C410.688 612.125 398.204 572.072 373.5 538.75C372.01 536.826 370.509 534.909 369 533C368.15 531.907 367.301 530.813 366.453 529.719C361.011 522.721 355.442 515.83 349.837 508.962C346.345 504.676 342.902 500.357 339.5 496C333.441 488.246 327.223 480.623 321 473C314.319 464.815 307.666 456.616 301.164 448.289C297.662 443.815 294.092 439.401 290.5 435C285.992 429.477 281.552 423.908 277.164 418.289C273.662 413.816 270.092 409.401 266.5 405C261.992 399.477 257.552 393.908 253.164 388.289C249.662 383.816 246.092 379.401 242.5 375C237.992 369.477 233.552 363.908 229.164 358.289C225.662 353.816 222.092 349.401 218.5 345C213.993 339.477 209.547 333.914 205.169 328.289C202.737 325.175 200.268 322.1 197.742 319.062C180 297.709 167.752 275.692 170 247C172.466 223.446 182.997 203.12 200.906 187.449C242.907 154.198 286.757 170.921 324.516 200.32Z" fill="#80A452"/>
<path d="M694.465 452.402C689.261 449.441 684.276 445.996 679.773 442.047C673.486 436.24 665.725 428.471 657 427C653 432.333 649 437.667 645 443C650.426 446.819 655.784 450.792 661.562 454.062C667.601 457.466 674.016 461.097 679.004 465.949C681 468 681 468 683.734 470.332L684.108 470.639C685.529 471.809 686.95 472.978 688.367 474.153C688.917 474.61 689.451 475.053 689.984 475.496C699.469 483.371 708.521 491.752 716.625 501.062C718.494 503.258 720.382 505.418 722.328 507.547C727.278 512.922 732.072 518.372 736.652 524.066C737.867 525.585 739.084 527.102 740.317 528.605C746.961 536.688 752.85 544.935 757.946 554.083C758.468 555.033 758.478 555.051 758.971 555.948L759 556C763.643 564.385 767.547 572.898 770.75 581.938C783.759 620.081 782.904 660.522 764.959 697.085C764.633 697.736 764.317 698.368 764 699C756.697 713.635 747.294 727.617 735.359 738.898C734.557 739.613 733.779 740.306 733 741C727.77 745.685 722.435 750.218 716.805 754.418C685.267 776.929 644.986 786.855 606.578 780.68C605.362 780.449 604.181 780.224 603 780C571.304 774.143 542.485 758.933 520.246 735.562C491.85 704.826 477.495 665.84 478.922 624.015C478.948 623.334 478.974 622.673 479 622.011L479 622C480.081 589.666 494.82 559.035 514.527 534.094C515.368 533.042 516.184 532.021 517 531C521.302 525.602 525.679 520.305 530.312 515.188C533.501 511.678 536.652 508.14 539.759 504.558C540.308 503.922 540.842 503.305 541.375 502.688L541.398 502.662C544 499.679 546.505 496.807 548.578 493.426C550.004 490.879 550.004 490.879 552.086 488.281C552.864 487.336 553.62 486.418 554.375 485.5C555.891 483.645 557.433 481.812 559 480C562.268 476.779 565.241 473.555 568.048 469.936C571.508 465.427 574.979 460.934 578.688 456.625C579.845 455.31 579.855 455.299 580.971 454.033L581 454C573.718 451.153 566.443 448.397 559 446C555.991 450.258 552.938 454.467 549.748 458.592L549.743 458.599C549.257 459.223 548.784 459.83 548.312 460.438C546.593 462.691 544.852 464.849 543 467C540.671 467.094 530.405 487.196 527 486C522.799 491.058 518.605 496.121 514.344 501.129C500.168 517.777 485.686 534.25 475.977 553.993C475.645 554.675 475.322 555.338 475 556C469.185 567.801 464.747 579.695 461.602 592.483C461.397 593.339 461.199 594.169 461 595C458.197 606.432 457.747 617.757 457.694 629.479L457.688 631.812C457.503 668.293 468.294 704.761 490.625 733.988C491.433 735.012 492.216 736.006 493 737C515.244 765.501 546.243 787.358 581.215 797.185L581.537 797.271C582.413 797.505 582.517 797.533 583.562 797.812C597.88 801.65 612.279 803.516 627.084 803.4C627.884 803.391 628.661 803.383 629.438 803.375C667.296 803.141 703.188 792.431 733.004 768.441C734.517 767.208 734.517 767.208 736 766C749.481 755.325 760.931 743.251 771.25 729.5C795.511 695.064 805.705 651.077 798.688 609.41C798.537 608.662 798.389 607.927 798.242 607.198L798 606C794.609 588.158 789.333 571.366 781.101 555.147C780.726 554.417 780.363 553.709 780 553C773.631 540.436 766.135 529.141 757.539 517.987C757.016 517.311 756.508 516.656 756 516C750.517 508.871 744.685 502.048 738.805 495.246C737.869 494.165 736.934 493.083 736 492C728.598 483.22 720.544 474.856 711.875 467.312C708.605 464.542 705.458 461.661 702.312 458.75C699.775 456.385 697.4 454.252 694.465 452.402Z" fill="#80A452"/>
</g>
</g>
<g id="2sloj">
<g id="Vector_2">
<path d="M313.163 137.643L441.467 231.5C442.386 231.041 443.467 231.709 443.467 232.736V255.264C443.467 256.021 443.039 256.714 442.362 257.053L442.187 257.14C441.725 257.371 441.192 257.414 440.699 257.261L439.325 256.834C438.963 256.849 438.587 256.746 438.252 256.5L309.967 162L305.088 158.584C305.008 158.528 304.923 158.478 304.836 158.434L300.967 156.5L296.467 154L287.89 149.711C287.612 149.572 287.306 149.5 286.995 149.5H285.073C284.678 149.5 284.292 149.383 283.963 149.164L281.971 147.836C281.643 147.617 281.257 147.5 280.862 147.5H277.521C277.159 147.5 276.803 147.401 276.492 147.215L274.942 146.285C274.632 146.099 274.276 146 273.913 146H271.665C271.534 146 271.402 145.987 271.273 145.961L266.662 145.039C266.532 145.013 266.401 145 266.269 145H253.467L243.967 146L233.967 147.5L225.467 149.5L216.467 152L207.967 155.5L202.467 158.5L196.127 161.914C196.021 161.971 195.92 162.038 195.826 162.113L190.967 166L185.967 169.5L181.618 172.882C181.518 172.961 181.425 173.048 181.341 173.144L177.967 177L173.467 181.5L170.967 184.5L167.128 188.339C167.021 188.446 166.927 188.565 166.847 188.693L164.467 192.5L161.467 197.5L158.467 203L155.467 209L151.544 217.828C151.493 217.943 151.453 218.061 151.424 218.183L149.467 226.5L147.535 233.747C147.49 233.915 147.467 234.088 147.467 234.262V261.811C147.467 261.937 147.479 262.062 147.503 262.185L149.467 272.5L151.437 283.333C151.457 283.444 151.487 283.553 151.525 283.659L155.467 294.5L161.467 307L166.967 316L343.467 535.5L350.467 545L355.967 552.5L361.967 561L366.967 569L371.467 577.5L374.967 585L377.915 592.861C377.95 592.954 377.978 593.048 377.998 593.145L379.467 600L381.467 606.5L382.967 612C382.967 612 383.673 617.171 383.967 620.5C384.861 630.614 385.53 636.467 383.967 646.5C382.91 653.286 381.402 656.911 379.467 663.5C377.501 670.195 376.368 673.948 373.967 680.5C371.497 687.241 370.369 691.177 366.967 697.5C363.375 704.178 360.767 707.63 355.967 713.5C347.304 724.095 341.156 729.117 329.967 737C320.107 743.948 314.194 747.588 302.967 752C294.105 755.483 288.833 756.78 279.467 758.5C260.262 762.027 248.593 762.435 229.467 758.5C220.876 756.732 207.967 752 207.967 752L186.467 741.5L168.689 730.635C168.542 730.545 168.414 730.444 168.295 730.319C166.938 728.897 157.93 719.403 153.468 713.5C148.538 706.978 148.095 704.239 143.467 697.5C139.162 691.231 137 687.475 133.967 680.5C129.454 670.119 128.301 663.671 126.467 652.5C123.463 634.195 122.904 623.205 126.467 605C128.389 595.18 130.046 589.706 133.967 580.5C138.665 569.47 142.884 564.02 149.467 554C162.226 534.58 186.017 509.287 192.049 502.975C192.829 502.159 194.116 502.172 194.901 502.983L206.553 515.037C207.33 515.841 207.307 517.119 206.497 517.89C201.746 522.416 186.61 537.097 177.967 548.5C168.541 560.938 163.725 568.432 156.967 582.5C150.148 596.696 144.243 604.771 143.467 620.5C142.841 633.199 143.467 640 145.968 652.5C148.911 667.213 153.742 676.137 161.467 689C168.088 700.024 173.477 705.403 183.467 713.5C193.929 721.979 201.002 725.406 213.467 730.5L213.875 730.667C223.062 734.422 228.513 736.649 238.467 738C247.174 739.181 252.204 738.646 260.967 738C264.688 737.726 279.467 735 279.467 735L286.467 733L294.467 730.5L302.967 726.5L313.467 720.5L322.967 713.5L331.467 706L338.967 697.5L344.967 689L349.967 680.5L354.467 670L358.467 659L360.467 652.5L361.467 646.5L361.967 642L362.467 638V628.5L361.967 624L361.467 620.5L360.967 615L359.967 609.5L358.967 605L357.467 600L355.967 596L354.967 593L353.467 589.5L351.467 585L350.467 582.5L347.967 577.5L345.467 573.5L343.467 570.5L337.967 563L336.467 561L334.064 557.635C333.999 557.545 333.928 557.461 333.85 557.383L331.607 555.14C331.514 555.047 331.412 554.963 331.303 554.89L330.22 554.169C330.053 554.057 329.903 553.92 329.776 553.764L161.467 346L149.467 329.5L137.041 308.127C136.992 308.042 136.949 307.955 136.913 307.864L133.967 300.5L131.467 294.5L129.967 290L127.967 282.5L126.467 276L125.467 270L124.967 262V243.5L125.467 236.5L126.467 230.5L127.467 225L131.467 211L133.967 205L136.967 197.5L139.467 192.5L145.967 181.5L151.967 173L157.967 166L162.967 160.5L168.467 155.5L175.467 149.5L180.467 146L186.967 141.5L195.967 136.5L207.967 131.5L221.967 127L235.467 124L247.967 123H264.467L278.967 125L287.312 126.963C287.415 126.988 287.517 127.02 287.615 127.061L312.743 137.408C312.892 137.469 313.033 137.548 313.163 137.643Z" fill="#465F18"/>
<path fill-rule="evenodd" clip-rule="evenodd" d="M671.861 518.31L686.292 503.298L680.596 499.584C680.51 499.528 680.429 499.466 680.353 499.398L665.967 486.5L645.967 470L640.467 466.5L635.967 463.5L631.249 460.669C631.063 460.557 630.9 460.411 630.77 460.237C630.111 459.359 628.8 459.341 628.117 460.201L616.776 474.482C616.449 474.893 616.742 475.5 617.267 475.5C617.397 475.5 617.524 475.54 617.63 475.616L632.967 486.5L650.467 499.5L671.861 518.31Z" fill="#465F18"/>
<path fill-rule="evenodd" clip-rule="evenodd" d="M354.33 436.128C353.513 436.351 352.644 436.035 352.161 435.34L340.634 418.739C340.525 418.584 340.467 418.398 340.467 418.209C340.467 417.79 340.747 417.423 341.15 417.312L354.967 413.5L365.467 411L375.467 409L388.467 407L400.967 405.5L421.467 404H444.467L466.467 404.5L480.967 406L499.467 408.5L521.967 413L534.467 416.5L552.467 422L565.467 427L590.967 438L597.967 442L603.788 445.396C603.907 445.465 604.033 445.522 604.164 445.565L606.719 446.417C607.707 446.746 608.273 447.774 607.975 448.771C606.626 453.286 602.558 464.774 596.434 463.368C596.276 463.331 596.117 463.262 595.976 463.182C547.43 435.497 535.012 434.482 492.967 428C467.082 424.009 442.467 424 425.967 425C409.467 426 391.967 428 391.967 428L363.967 433.5L354.33 436.128Z" fill="#465F18"/>
<path fill-rule="evenodd" clip-rule="evenodd" d="M567.576 138.921C567.431 138.981 567.294 139.058 567.167 139.15L441.234 230.444C440.749 230.796 440.447 231.347 440.412 231.946L439.967 239.5L440.367 254.686C440.409 256.299 442.245 257.2 443.547 256.248L570.344 163.531L575.2 160.113C575.28 160.056 575.365 160.006 575.452 159.962L579.301 158.026L583.78 155.524L592.314 151.234C592.592 151.094 592.9 151.021 593.212 151.021H595.115C595.511 151.021 595.899 150.903 596.229 150.682L598.204 149.358C598.533 149.137 598.921 149.019 599.317 149.019H602.631C602.995 149.019 603.352 148.92 603.664 148.732L605.199 147.806C605.511 147.618 605.868 147.518 606.232 147.518H608.463C608.595 147.518 608.727 147.505 608.857 147.479L613.443 146.557C613.573 146.53 613.705 146.517 613.837 146.517H626.576L636.031 147.518L645.984 149.019L654.444 151.021L663.401 153.523L671.861 157.026L677.335 160.028L683.644 163.444C683.75 163.502 683.851 163.569 683.945 163.645L688.78 167.534L693.756 171.037L698.084 174.421C698.185 174.5 698.277 174.588 698.361 174.684L701.719 178.542L706.197 183.046L708.685 186.048L712.506 189.89C712.613 189.997 712.707 190.116 712.786 190.245L715.155 194.055L718.14 199.059L721.126 204.563L724.112 210.568L728.017 219.404C728.068 219.518 728.107 219.636 728.135 219.757L730.083 228.081L732.007 235.335C732.052 235.503 732.074 235.675 732.074 235.848V263.422C732.074 263.546 732.062 263.671 732.039 263.794L730.083 274.118L728.123 284.96C728.103 285.071 728.074 285.179 728.036 285.285L724.112 296.135L718.14 308.645L712.666 317.652L537.003 537.325L530.036 546.832L524.562 554.338L518.591 562.845L513.614 570.851L509.136 579.358L505.652 586.863L502.718 594.732C502.684 594.824 502.656 594.918 502.636 595.014L501.173 601.875L499.183 608.38L497.729 613.741C497.703 613.837 497.684 613.934 497.673 614.032L496.695 622.391V648.153C496.695 648.325 496.717 648.496 496.761 648.662L501.173 665.425L506.647 682.439L513.534 699.256C513.587 699.386 513.654 699.511 513.734 699.627L524.43 715.271C524.518 715.4 524.62 715.518 524.736 715.622L550.269 738.829C550.382 738.931 550.506 739.021 550.639 739.095L577.102 753.878C577.241 753.956 577.388 754.016 577.541 754.059L600.437 760.427C600.611 760.475 600.791 760.5 600.972 760.5H650.165C650.362 760.5 650.558 760.471 650.747 760.414L671.706 754.042C671.809 754.011 671.909 753.971 672.006 753.924L693.259 743.487C693.259 743.487 705.264 738.18 711.173 732.478C716.936 726.918 723.816 722 727.967 715.465C732.344 708.574 734.363 706.193 738.967 699.452C743.572 692.711 747.467 682.439 747.467 682.439L752.467 661L753.97 652.5L754.467 648.5V644L754.967 635.5V616.705C754.967 616.569 754.953 616.433 754.926 616.299L752.974 606.879L745.578 582.582C745.533 582.435 745.471 582.293 745.393 582.159L730.168 555.985C730.112 555.888 730.047 555.796 729.976 555.71L686.292 503.298L671.861 518.31L701.719 550.335C701.719 550.335 715.977 570.252 722.619 584.362C729.319 598.596 735.477 606.767 735.6 622.5C735.603 622.891 735.6 623.109 735.6 623.5C735.6 623.888 735.623 624.107 735.6 624.495C735.569 624.996 735.725 625.667 735.843 626.091C735.919 626.363 735.954 626.645 735.928 626.926L735.6 630.5C735.6 630.5 735.806 636.789 735.232 639.905C734.083 646.137 733.025 654.417 733.025 654.417C729.721 669.057 725.841 678.063 718.14 690.945C711.553 701.964 706.198 707.357 696.245 715.465C685.839 723.94 678.8 727.378 666.387 732.478C656.999 736.335 651.562 738.613 641.505 739.984C632.84 741.165 619.112 739.984 619.112 739.984L609.657 738.983L600.7 736.982L593.733 734.98L585.771 732.478L577.311 728.475L566.861 722.47L557.406 715.465L548.946 707.959L541.482 699.452L535.51 690.945L530.534 682.439L526.055 671.93L522.074 660.922L520.083 654.417L519.088 648.412L518.591 643.908L518.093 639.905V630.398L518.591 625.894L519.088 622.391L519.586 616.887L520.581 611.383L521.576 606.879L523.069 601.875L524.562 597.872L525.557 594.87L527.05 591.367L529.041 586.863L530.036 584.362L532.524 579.358L535.012 575.354L537.003 572.352L542.477 564.846L543.97 562.845L546.362 559.477C546.426 559.387 546.497 559.303 546.574 559.225L548.806 556.98C548.899 556.887 549.001 556.803 549.111 556.73L550.186 556.009C550.354 555.896 550.503 555.759 550.63 555.602L718.14 347.675L730.083 331.162L742.451 309.772C742.5 309.688 742.542 309.6 742.578 309.51L745.51 302.14L747.998 296.135L749.491 291.631L751.482 284.125L752.974 277.62L753.97 271.616L754.467 263.609V245.095L753.97 238.089L752.974 232.085L751.979 226.58L747.998 212.569L745.51 206.565L742.524 199.059L740.036 194.055L733.567 183.046L727.595 174.539L721.624 167.534L716.647 162.03L711.173 157.026L704.207 151.021L699.23 147.518L692.761 143.015L683.804 138.011L671.861 133.007L657.927 128.503L644.491 125.501L632.05 124.5H615.628L601.197 126.502L592.894 128.466C592.79 128.491 592.688 128.524 592.589 128.565L567.576 138.921Z" fill="#465F18"/>
</g>
</g>
<g id="1sloj">
<g id="Vector_3">
<path d="M541 468.387C539.688 471.23 538.233 473.481 536.18 475.84C535.645 476.459 535.11 477.078 534.559 477.715C534.003 478.349 533.447 478.984 532.875 479.637C532.03 480.612 532.03 480.612 531.168 481.606C529.782 483.203 528.392 484.795 527 486.387C526.283 486.196 525.565 486.005 524.826 485.808C511.795 482.366 498.825 479.114 485.5 477.012C484.518 476.857 483.537 476.702 482.526 476.542C468.415 474.434 454.428 474.152 440.188 474.137C439.187 474.135 438.187 474.132 437.156 474.13C423.933 474.118 411.095 474.48 398.035 476.731C390.957 477.896 390.957 477.896 388 477.387C385.768 475.349 384.08 473.549 382.25 471.2C381.769 470.621 381.288 470.043 380.793 469.448C378.2 466.251 376.285 463.353 375 459.387C382.755 457.358 390.51 455.908 398.438 454.762C399.27 454.639 400.102 454.516 400.96 454.39C443.775 448.41 501.808 448.791 541 468.387Z" fill="#263706"/>
<path d="M663 455C667.432 456.519 671.03 458.926 674.812 461.625C675.41 462.045 676.006 462.465 676.622 462.898C678.084 463.928 679.543 464.963 681 466C679.016 470.206 676.363 473.61 673.5 477.25C672.752 478.225 672.751 478.225 671.987 479.219C670.707 480.852 669.359 482.431 668 484H666C665.642 484.808 665.641 484.808 665.276 485.633C663.654 488.639 661.663 491.18 659.562 493.875C659.127 494.435 658.692 494.995 658.244 495.572C656.833 497.385 655.417 499.193 654 501C653.512 501.624 653.023 502.248 652.52 502.892C648.04 508.616 643.549 514.33 639 520C640.666 521.522 642.333 523.042 644 524.562C644.928 525.409 645.856 526.256 646.812 527.129C649.084 529.192 651.395 531.2 653.723 533.199C658.84 537.668 663.634 542.45 668.438 547.25C669.327 548.128 670.218 549.006 671.135 549.91C676.447 555.21 681.349 560.676 686.012 566.557C687.915 568.896 689.912 571.076 692 573.25C700.359 582.594 706.286 594.087 710 606C710.318 606.993 710.637 607.985 710.965 609.008C717.051 631.837 713.581 655.859 702.064 676.202C690.685 695.427 672.412 708.774 651 714.875C628.831 720.488 605.871 716.71 585.938 705.875C579.136 701.739 573.612 696.589 568 691C567.196 690.23 566.391 689.461 565.562 688.668C551.072 673.901 544.326 652.583 543.688 632.25C544.303 603.14 560.338 579.189 579.645 558.562C582.777 555.155 585.659 551.573 588.565 547.973C591.92 543.874 595.376 539.865 598.839 535.858C604.306 529.967 604.306 529.967 608 523C607.276 522.729 606.552 522.458 605.806 522.179C603.054 521.023 600.648 519.686 598.104 518.129C584.872 510.151 571.508 503.252 557.357 497.053C554.522 495.787 551.758 494.425 549 493C550.745 488.948 553.423 485.694 556.125 482.25C556.827 481.347 556.827 481.347 557.543 480.426C558.692 478.948 559.846 477.474 561 476C566.337 476.506 570.487 477.879 575.25 480.375C576.265 480.894 576.265 480.894 577.301 481.423C583.773 484.779 590.079 488.43 596.353 492.142C600.576 494.637 604.827 496.937 609.232 499.093C611.555 500.285 613.676 501.69 615.812 503.188C618.306 504.931 620.086 506.029 623 507C623.331 506.225 623.331 506.225 623.668 505.434C625.534 502.025 627.902 499.101 630.312 496.062C630.786 495.455 631.259 494.847 631.747 494.221C634.63 490.565 637.683 487.275 641 484C642.567 482.188 644.109 480.355 645.625 478.5C646.38 477.582 647.136 476.664 647.914 475.719C649.992 473.117 649.991 473.117 651.448 470.582C653.451 467.248 655.795 464.249 658.188 461.188C658.65 460.59 659.113 459.993 659.591 459.377C660.724 457.916 661.862 456.458 663 455ZM625 537C619.054 543.099 613.626 549.625 608.281 556.25C605.933 559.081 603.491 561.794 601 564.5C581.224 586.049 563.799 608.487 564.872 638.905C565.84 654.823 575.065 669.429 586.305 680.211C601.302 693.045 618.156 697.196 637.5 696.211C653.37 694.869 668.103 685.99 678.479 674.176C690.441 658.848 696.141 642.399 694 623C689.993 600.259 674.817 582.261 658.887 566.551C657.059 564.746 655.245 562.929 653.432 561.109C646.594 554.289 639.593 547.98 632 542C630.788 540.984 629.579 539.963 628.375 538.938C626.382 536.895 626.382 536.895 625 537Z" fill="#263606"/>
<path d="M353.144 116.07C356.648 118.749 360.211 121.33 363.812 123.875C371.802 129.538 379.67 135.364 387.544 141.186C391.526 144.128 395.513 147.064 399.5 150C401.078 151.163 402.656 152.325 404.234 153.488C405.017 154.065 405.8 154.642 406.607 155.237C409.035 157.026 411.463 158.816 413.89 160.605C423.583 167.751 433.285 174.884 443 182C448.033 179.279 452.357 176.274 456.75 172.625C462.47 167.964 468.297 163.486 474.25 159.125C475.047 158.541 475.845 157.956 476.667 157.354C479.109 155.567 481.554 153.783 484 152C493.427 145.116 502.811 138.2 512 131C554.858 97.4808 597.343 76.2749 653.242 82.9477C687.364 87.6299 719.381 102.021 745 125C745.883 125.762 746.766 126.524 747.676 127.309C780.404 155.863 799.678 197.985 803 241C805.64 288.92 790.207 332.544 759.578 369.095C757.158 372.016 754.828 375.005 752.5 378C748.019 383.741 743.44 389.397 738.836 395.039C735.344 399.325 731.902 403.643 728.5 408C724.023 413.734 719.452 419.385 714.851 425.019C710.736 430.069 706.704 435.178 702.696 440.313C699.568 444.308 696.353 448.193 693 452C687.169 448.898 682.134 445.144 677 441C677.595 437.857 678.54 436.008 680.59 433.566C681.387 432.603 681.387 432.603 682.201 431.621C682.774 430.942 683.347 430.262 683.937 429.562C685.135 428.117 686.332 426.67 687.527 425.223C688.12 424.506 688.713 423.79 689.323 423.051C691.615 420.248 693.809 417.383 696 414.5C700.262 408.912 704.666 403.454 709.113 398.012C712.623 393.711 716.084 389.376 719.5 385C723.442 379.951 727.45 374.963 731.5 370C737.42 362.733 743.297 355.44 749 348C749.424 347.452 749.847 346.904 750.284 346.339C770.737 319.684 781.494 287.88 781.312 254.312C781.31 253.611 781.309 252.909 781.307 252.186C781.259 241.222 780.677 230.668 778 220C777.833 219.31 777.667 218.62 777.496 217.91C770.856 191.062 756.832 168.012 738 148C737.413 147.349 736.827 146.698 736.222 146.027C711.793 119.994 673.542 104.894 638.238 103.715C597.007 102.93 567.839 115.534 535.869 140.647C528.17 146.689 520.291 152.475 512.391 158.25C508.42 161.156 504.46 164.079 500.5 167C498.916 168.167 497.333 169.333 495.75 170.5C494.966 171.077 494.182 171.655 493.375 172.25C486.25 177.5 486.25 177.5 483.872 179.252C482.298 180.412 480.723 181.572 479.149 182.732C475.054 185.75 470.959 188.766 466.863 191.781C466.017 192.404 465.172 193.026 464.301 193.668C462.698 194.848 461.095 196.028 459.492 197.207C458.758 197.747 458.025 198.287 457.269 198.844C456.203 199.621 456.203 199.621 455.115 200.414C453.667 201.5 452.245 202.622 450.849 203.773C445.697 207.958 445.697 207.958 442.347 208.16C439.27 206.639 437.002 204.723 434.437 202.437C430.526 199.039 426.609 195.95 422.25 193.125C417.474 190.03 412.908 186.748 408.375 183.312C402.696 179.011 396.973 174.782 391.187 170.625C382.541 164.407 373.964 158.1 365.4 151.771C362.995 149.996 360.586 148.228 358.176 146.461C356.575 145.286 354.975 144.112 353.375 142.937C352.589 142.362 351.803 141.786 350.993 141.193C347.134 138.355 343.314 135.482 339.554 132.512C320.899 117.787 300.648 108.575 277 105C275.805 104.817 274.61 104.634 273.379 104.445C256.76 102.452 239.312 103.327 223 107C222.255 107.166 221.51 107.333 220.742 107.504C194.173 113.667 170.735 127.316 151 146C150.115 146.82 149.231 147.64 148.32 148.484C120.385 175.232 106.79 212.545 104.812 250.609C104.043 292.367 120.799 327.342 146.711 358.961C149.671 362.581 152.565 366.248 155.437 369.938C159.539 375.198 163.746 380.362 168 385.5C174.128 392.904 180.096 400.417 186 408C192.304 416.083 198.682 424.097 205.163 432.039C209.112 436.885 212.988 441.784 216.836 446.711C220.879 451.876 225.018 456.96 229.166 462.041C232.639 466.303 236.058 470.601 239.437 474.938C243.539 480.198 247.746 485.363 252 490.5C256.713 496.191 261.344 501.933 265.886 507.762C269.908 512.912 274.03 517.977 278.164 523.037C281.668 527.335 285.102 531.68 288.5 536.062C292.303 540.958 296.277 545.661 300.375 550.312C323.278 576.421 343.238 604.705 341 641C338.622 663.196 327.348 683.768 310.367 698.164C290.815 713.328 268.344 719.427 243.869 716.769C221.935 713.752 201.395 702.238 187.687 684.812C177.594 671.319 170.698 654.97 170 638C169.948 637.053 169.897 636.105 169.843 635.129C168.918 603.635 185.588 575.942 206.473 553.68C211.877 548.017 217.421 542.49 223 537C226.987 538.558 229.111 541.119 231.812 544.375C233.028 545.81 233.028 545.81 234.269 547.273C236 550 236 550 235.781 551.985C234.904 554.248 233.993 555.314 232.226 556.961C231.654 557.507 231.082 558.054 230.493 558.617C229.876 559.197 229.26 559.777 228.625 560.375C209.077 579.376 191.984 603.707 191.562 631.875C191.719 650.113 198.788 665.515 211.371 678.598C225.521 691.528 242.75 695.761 261.375 695.367C277.367 694.607 292.405 686.891 303.265 675.148C315.79 659.634 320.532 642.597 319 623C315.556 600.601 298.505 582.63 284.669 565.745C281.324 561.659 278.066 557.52 274.875 553.312C271.051 548.297 267.066 543.461 262.969 538.668C259.541 534.656 256.221 530.572 252.941 526.438C250.919 523.899 248.87 521.385 246.812 518.875C238.512 508.746 230.224 498.612 222.164 488.29C218.662 483.816 215.092 479.402 211.5 475C206.992 469.477 202.551 463.908 198.164 458.289C194.662 453.816 191.092 449.401 187.5 445C182.992 439.477 178.551 433.908 174.164 428.289C170.662 423.816 167.092 419.401 163.5 415C158.992 409.477 154.551 403.908 150.164 398.289C146.662 393.816 143.091 389.401 139.5 385C134.021 378.282 128.625 371.506 123.304 364.662C122.022 363.028 120.719 361.413 119.41 359.801C112.913 351.719 107.752 343.208 103 334C102.646 333.319 102.293 332.638 101.929 331.937C80.9786 291.032 78.2973 242.878 92.219 199.366C106.768 155.283 138.881 119.846 180.054 98.9062C237.441 70.7142 303.005 77.7101 353.144 116.07Z" fill="#263706"/>
</g>
</g>
</g>
</svg>
