<?xml version="1.0" encoding="UTF-8"?>
<svg version="1.1" xmlns="http://www.w3.org/2000/svg" width="886" height="886">
<path d="M0 0 C3.50372961 2.6785538 7.06680919 5.25924758 10.66796875 7.8046875 C18.65788223 13.46731909 26.52535197 19.29376404 34.39990234 25.11523438 C38.38196084 28.05763433 42.36889757 30.99340628 46.35546875 33.9296875 C47.93362244 35.09240897 49.51174739 36.25516946 51.08984375 37.41796875 C51.87294922 37.99498535 52.65605469 38.57200195 53.46289062 39.16650391 C55.89084442 40.95575721 58.31850198 42.7454118 60.74609375 44.53515625 C70.4390453 51.68059509 80.14055694 58.81413176 89.85546875 65.9296875 C94.88839515 63.2088415 99.21300341 60.20375658 103.60546875 56.5546875 C109.32612849 51.89346272 115.15319037 47.41614971 121.10546875 43.0546875 C121.90299561 42.47025879 122.70052246 41.88583008 123.5222168 41.28369141 C125.96512043 39.49694058 128.4100813 37.71303699 130.85546875 35.9296875 C140.28258909 29.04615061 149.66664431 22.12959325 158.85546875 14.9296875 C201.71327992 -18.58954808 244.19863305 -39.79544541 300.09814453 -33.12255859 C334.21946655 -28.4404264 366.23672496 -14.04934425 391.85546875 8.9296875 C392.73847656 9.69152344 393.62148438 10.45335937 394.53125 11.23828125 C427.25936423 39.79267018 446.53395861 81.91434546 449.85546875 124.9296875 C452.49556131 172.84928049 437.06248504 216.4740953 406.43408203 253.02441406 C404.013674 255.94567362 401.6839473 258.93501603 399.35546875 261.9296875 C394.87478311 267.67079631 390.29587677 273.32665233 385.69140625 278.96875 C382.20016792 283.25420368 378.75727987 287.57298203 375.35546875 291.9296875 C370.87924456 297.66239567 366.30814353 303.31239821 361.70898438 308.94677734 C357.59379213 313.99735229 353.54668485 319.09741734 349.54492188 324.23828125 C346.71731048 327.86432894 343.81425399 331.41084648 340.85546875 334.9296875 C343.02074411 336.95203036 345.18728008 338.97297093 347.35546875 340.9921875 C348.00185303 341.59417969 348.6482373 342.19617188 349.31420898 342.81640625 C352.46931037 345.74600171 355.63493633 348.64300987 358.91796875 351.4296875 C367.54149326 358.88234554 375.51519126 367.22270562 382.85546875 375.9296875 C383.78925681 377.0126749 384.72426954 378.09460693 385.66015625 379.17578125 C391.54050077 385.97745722 397.37294852 392.80050754 402.85546875 399.9296875 C403.36335937 400.58533691 403.87125 401.24098633 404.39453125 401.91650391 C412.99050035 413.0711476 420.48671802 424.3661343 426.85546875 436.9296875 C427.21866211 437.63834961 427.58185547 438.34701172 427.95605469 439.07714844 C436.18825151 455.29569367 441.46419809 472.08736473 444.85546875 489.9296875 C445.08234375 491.05503906 445.30921875 492.18039062 445.54296875 493.33984375 C452.56062541 535.00718019 442.36607926 578.99365564 418.10546875 613.4296875 C407.78686491 627.18105522 396.33652951 639.25496087 382.85546875 649.9296875 C381.86675781 650.73535156 380.87804687 651.54101562 379.859375 652.37109375 C350.0434281 676.36044881 314.15190433 687.07114181 276.29296875 687.3046875 C275.51644958 687.31281464 274.73993042 687.32094177 273.93988037 687.32931519 C259.13463021 687.44522859 244.73586378 685.5796947 230.41796875 681.7421875 C229.64340332 681.5349707 228.86883789 681.32775391 228.07080078 681.11425781 C193.0986355 671.28736839 162.0998618 649.43031609 139.85546875 620.9296875 C139.07171875 619.93582031 138.28796875 618.94195313 137.48046875 617.91796875 C115.14919296 588.69093193 104.35867767 552.22295105 104.54296875 515.7421875 C104.5451239 514.97211365 104.54727905 514.20203979 104.54949951 513.40863037 C104.60206844 501.6869742 105.05213345 490.36215732 107.85546875 478.9296875 C108.05414551 478.09904785 108.25282227 477.2684082 108.45751953 476.41259766 C111.60200164 463.6250371 116.04075034 451.73112457 121.85546875 439.9296875 C122.17773438 439.26743164 122.5 438.60517578 122.83203125 437.92285156 C132.54100866 418.17929079 147.02358418 401.70684455 161.19921875 385.05859375 C165.46016536 380.05103038 169.65434614 374.98743815 173.85546875 369.9296875 C161.81055727 366.06095765 149.77402073 363.17881054 137.29296875 361.1171875 C136.04628418 360.9106958 134.79959961 360.7042041 133.51513672 360.49145508 C118.65362629 358.13338122 104.05997926 357.69565765 89.04296875 357.6796875 C88.04256561 357.67735107 87.04216248 357.67501465 86.01144409 357.67260742 C72.78833144 357.66093736 59.95076479 358.02256498 46.890625 360.2734375 C39.81294957 361.43845693 39.81294957 361.43845693 36.85546875 360.9296875 C34.62321426 358.89141234 32.93550674 357.09183461 31.10546875 354.7421875 C30.62464844 354.16404297 30.14382813 353.58589844 29.6484375 352.99023438 C27.055077 349.79368278 25.14015979 346.89579764 23.85546875 342.9296875 C31.61055574 340.90099127 39.3655918 339.451117 47.29296875 338.3046875 C48.12530029 338.18182373 48.95763184 338.05895996 49.81518555 337.93237305 C94.58293823 331.67979733 141.06994884 336.67839049 184.12109375 349.828125 C187.52627333 351.0239964 187.52627333 351.0239964 189.85546875 350.9296875 C191.70794873 348.77890156 193.44869744 346.62073436 195.16796875 344.3671875 C195.64169922 343.75810547 196.11542969 343.14902344 196.60351562 342.52148438 C199.79386399 338.39716261 202.84671668 334.18797595 205.85546875 329.9296875 C205.19675781 329.81882812 204.53804687 329.70796875 203.859375 329.59375 C200.86209277 328.93115185 197.9990123 328.03318346 195.08837891 327.06420898 C175.25538491 320.5017282 155.29312743 315.82075964 134.60546875 313.0546875 C133.83672424 312.95123016 133.06797974 312.84777283 132.27593994 312.74118042 C91.81536925 307.38092674 50.2635835 309.11683566 10.69091797 319.46118164 C7.64612933 319.96427699 5.77241073 319.91701674 2.85546875 318.9296875 C1.1862793 317.47094727 1.1862793 317.47094727 -0.2578125 315.62109375 C-0.78310547 314.95658203 -1.30839844 314.29207031 -1.84960938 313.60742188 C-2.38005859 312.90939453 -2.91050781 312.21136719 -3.45703125 311.4921875 C-4.00681641 310.79802734 -4.55660156 310.10386719 -5.12304688 309.38867188 C-9.14453125 304.22818323 -9.14453125 304.22818323 -9.14453125 301.9296875 C3.65432066 298.46777644 16.47807698 295.45947313 29.54296875 293.1796875 C31.21105591 292.88251831 31.21105591 292.88251831 32.9128418 292.5793457 C51.35195463 289.47231604 69.74179489 288.54929849 88.41796875 288.6171875 C89.46584564 288.61901031 90.51372253 288.62083313 91.59335327 288.62271118 C108.18836051 288.67114464 124.43894482 289.30866927 140.85546875 291.9296875 C141.95439453 292.10129395 143.05332031 292.27290039 144.18554688 292.44970703 C166.85599361 296.08829422 189.20323243 301.40311686 210.70019531 309.52856445 C211.58545898 309.85687256 212.47072266 310.18518066 213.3828125 310.5234375 C214.15359131 310.81927734 214.92437012 311.11511719 215.71850586 311.41992188 C218.21697305 312.01592319 219.48529776 311.89739956 221.85546875 310.9296875 C223.72729717 308.81633283 225.38919198 306.76279144 227.04296875 304.4921875 C227.49349609 303.89341797 227.94402344 303.29464844 228.40820312 302.67773438 C230.83707123 299.43381969 230.83707123 299.43381969 232.85546875 295.9296875 C231.59734375 295.5790625 230.33921875 295.2284375 229.04296875 294.8671875 C225.65111493 293.86184579 222.33935663 292.75189173 219.05078125 291.453125 C195.91989681 282.36446836 171.30699818 277.06614858 146.85546875 272.9296875 C145.2923999 272.66454346 145.2923999 272.66454346 143.69775391 272.39404297 C91.8243359 263.9810837 35.80492244 268.28422493 -14.47680664 283.40600586 C-22.09118587 285.65523492 -22.09118587 285.65523492 -25.14453125 284.9296875 C-27.38129408 282.8918957 -29.11336823 280.55368409 -30.89453125 278.1171875 C-31.38824219 277.47458984 -31.88195312 276.83199219 -32.390625 276.16992188 C-34.49358247 273.38998494 -36.03129669 271.26939117 -37.14453125 267.9296875 C-0.01524467 254.70941122 39.47265117 247.85816257 78.85546875 246.9296875 C79.71430664 246.90777344 80.57314453 246.88585937 81.45800781 246.86328125 C135.88119713 245.67629784 192.67979089 255.12880512 242.65087891 277.28637695 C245.23140672 278.03938811 246.39104004 277.972465 248.85546875 276.9296875 C250.39366237 275.5808563 250.39366237 275.5808563 251.703125 273.82421875 C252.2202002 273.17759277 252.73727539 272.5309668 253.27001953 271.86474609 C253.81384277 271.16430176 254.35766602 270.46385742 254.91796875 269.7421875 C255.49015137 269.02111816 256.06233398 268.30004883 256.65185547 267.55712891 C258.39574145 265.35516481 260.12627393 263.14319725 261.85546875 260.9296875 C262.82471006 259.70118281 263.79470888 258.47327522 264.765625 257.24609375 C267.47419205 253.8165933 270.16649752 250.3745628 272.85546875 246.9296875 C279.1629012 238.84915545 285.53789845 230.8332261 292.01904297 222.89111328 C295.96877628 218.04312851 299.84742992 213.14469951 303.69360352 208.21435547 C306.63034182 204.46011993 309.62034706 200.75456134 312.64257812 197.06884766 C335.61645194 169.25262005 335.61645194 169.25262005 342.23828125 134.5 C340.25838542 116.03444094 332.4798226 99.47896166 317.9609375 87.515625 C305.01504512 77.76417359 289.11929235 72.58098018 272.85546875 73.9296875 C255.96583199 76.56646623 242.97162745 84.79585092 229.80664062 95.37939453 C225.72399757 98.6232363 221.56550881 101.76956958 217.41796875 104.9296875 C216.50313721 105.62779541 215.58830566 106.32590332 214.64575195 107.04516602 C209.24245184 111.1553935 203.78815911 115.16679936 198.23364258 119.0690918 C192.92177806 122.82633979 187.76789445 126.78316666 182.60546875 130.7421875 C175.25698401 136.37609177 167.83785987 141.88562374 160.3112793 147.27880859 C155.46959534 150.75182815 150.67620239 154.28073998 145.91796875 157.8671875 C137.76657484 164.01117887 129.55112493 170.06594451 121.32714844 176.11230469 C117.10593918 179.21608597 112.88682868 182.32271402 108.66796875 185.4296875 C107.90250732 185.99284668 107.1370459 186.55600586 106.34838867 187.13623047 C105.24781128 187.94664795 105.24781128 187.94664795 104.125 188.7734375 C103.41424316 189.29035156 102.70348633 189.80726563 101.97119141 190.33984375 C100.51762363 191.43211624 99.09621717 192.5681138 97.70458984 193.73828125 C95.80342671 195.30724114 94.01005403 196.73217054 91.85546875 197.9296875 C89.21875 197.546875 89.21875 197.546875 86.85546875 195.9296875 C85.94152344 195.35476563 85.02757812 194.77984375 84.0859375 194.1875 C76.6636317 188.98521635 69.38131706 183.62241596 62.1484375 178.16015625 C57.63830522 174.7575201 53.09391772 171.40245314 48.54296875 168.0546875 C47.74810059 167.46985596 46.95323242 166.88502441 46.13427734 166.2824707 C44.51592291 165.0921014 42.89743284 163.90191647 41.27880859 162.71191406 C37.30224357 159.78738004 33.32900604 156.85833317 29.35546875 153.9296875 C27.77215179 152.76299862 26.18881844 151.59633197 24.60546875 150.4296875 C15.10546875 143.4296875 5.60546875 136.4296875 -3.89453125 129.4296875 C-4.67812012 128.85234863 -5.46170898 128.27500977 -6.26904297 127.68017578 C-7.85416753 126.51210352 -9.43912819 125.34380882 -11.02392578 124.17529297 C-14.95354756 121.27829609 -18.88583477 118.3850761 -22.82421875 115.5 C-24.38952981 114.3518445 -25.95463354 113.20340631 -27.51953125 112.0546875 C-28.29377441 111.48669434 -29.06801758 110.91870117 -29.86572266 110.33349609 C-35.06021612 106.50738124 -40.18552264 102.59962443 -45.29199219 98.65698242 C-62.56091881 85.34667745 -80.23773223 72.00827841 -103.14453125 73.9296875 C-120.67158196 76.51730283 -136.8679355 83.83970794 -148.14453125 97.9296875 C-158.88998574 114.23517532 -164.07791204 131.54194015 -160.49609375 151.0546875 C-156.64269202 166.86351511 -148.17444216 177.77893793 -137.86962891 189.87792969 C-135.36425744 192.85771199 -132.96779194 195.91639277 -130.58203125 198.9921875 C-126.6641 204.02260883 -122.67654503 208.99024908 -118.64453125 213.9296875 C-114.13685911 219.45302407 -109.69610358 225.02153347 -105.30859375 230.640625 C-101.80676878 235.11405458 -98.23641961 239.52835952 -94.64453125 243.9296875 C-90.13693152 249.45308435 -85.69610483 255.02153186 -81.30859375 260.640625 C-77.80676878 265.11405458 -74.23641961 269.52835952 -70.64453125 273.9296875 C-66.13693152 279.45308435 -61.69610483 285.02153186 -57.30859375 290.640625 C-53.80676878 295.11405458 -50.23641961 299.52835952 -46.64453125 303.9296875 C-42.13693152 309.45308435 -37.69610483 315.02153186 -33.30859375 320.640625 C-29.80676878 325.11405458 -26.23641961 329.52835952 -22.64453125 333.9296875 C-18.13693152 339.45308435 -13.69610483 345.02153186 -9.30859375 350.640625 C-5.80676878 355.11405458 -2.23641961 359.52835952 1.35546875 363.9296875 C5.86406845 369.45430967 10.30761353 375.02269411 14.69360352 380.64501953 C17.62984107 384.39861493 20.61924544 388.10361191 23.64111328 391.78857422 C58.82198464 434.72733208 78.39771427 480.2031894 73.5390625 536.60253906 C72.03405616 549.07728824 69.16935386 561.1392449 64.85546875 572.9296875 C64.21158203 574.73179687 64.21158203 574.73179687 63.5546875 576.5703125 C52.25466456 606.49149999 33.05046824 632.26529765 7.85546875 651.9296875 C6.86160156 652.7134375 5.86773437 653.4971875 4.84375 654.3046875 C-24.25737494 676.53054282 -60.18488099 687.40856124 -96.51953125 687.3046875 C-97.30622192 687.303479 -98.0929126 687.30227051 -98.90344238 687.30102539 C-142.66088069 687.11957862 -183.32324433 671.16895021 -215.14453125 640.9296875 C-215.97791016 640.15310791 -215.97791016 640.15310791 -216.828125 639.36083984 C-247.32614616 610.80583777 -267.65890852 569.74840591 -269.27075195 527.6315918 C-269.35142954 523.79313145 -269.39112302 519.95635883 -269.39453125 516.1171875 C-269.39520599 515.43160767 -269.39588074 514.74602783 -269.39657593 514.03967285 C-269.37852863 502.44824643 -268.61378494 491.27707479 -266.14453125 479.9296875 C-265.97824219 479.14770996 -265.81195313 478.36573242 -265.640625 477.56005859 C-258.16490725 443.53862085 -239.20009917 415.43298577 -216.14453125 389.9296875 C-215.64791992 389.37667969 -215.15130859 388.82367188 -214.63964844 388.25390625 C-209.56741712 382.61285801 -204.38520688 377.11348858 -198.9765625 371.79296875 C-197.0953656 369.8796832 -195.334108 367.89897496 -193.58203125 365.8671875 C-186.81352523 358.02751883 -186.81352523 358.02751883 -183.14453125 354.9296875 C-182.48453125 354.9296875 -181.82453125 354.9296875 -181.14453125 354.9296875 C-179.17679497 357.13969761 -177.33866287 359.35267649 -175.51953125 361.6796875 C-174.74609375 362.63101563 -174.74609375 362.63101563 -173.95703125 363.6015625 C-173.46976562 364.2203125 -172.9825 364.8390625 -172.48046875 365.4765625 C-172.0323584 366.04213867 -171.58424805 366.60771484 -171.12255859 367.19042969 C-170.14453125 368.9296875 -170.14453125 368.9296875 -170.14453125 372.9296875 C-171.92944336 375.13696289 -171.92944336 375.13696289 -174.421875 377.52734375 C-175.7821582 378.85475586 -175.7821582 378.85475586 -177.16992188 380.20898438 C-178.13986437 381.13751396 -179.11057077 382.0652462 -180.08203125 382.9921875 C-187.31469953 389.95306449 -193.90679521 397.06491468 -200.14453125 404.9296875 C-201.21612195 406.21272146 -202.29238007 407.49188372 -203.375 408.765625 C-231.84388243 442.64770459 -251.39691604 481.99305606 -247.8359375 527.2265625 C-244.14051174 567.60756767 -225.45358067 604.02029635 -194.8515625 630.71875 C-163.18583484 656.58137894 -124.30244222 668.81399919 -83.47021484 665.72753906 C-57.6435639 663.08861001 -32.21474534 654.19408064 -11.14453125 638.9296875 C-10.57573242 638.52024902 -10.00693359 638.11081055 -9.42089844 637.68896484 C23.64843553 613.56401062 45.10299808 577.93146168 51.6015625 537.52734375 C57.54319459 496.05503767 45.0594057 456.00127687 20.35546875 422.6796875 C18.8648933 420.75568231 17.3645865 418.83918343 15.85546875 416.9296875 C15.00570449 415.83656353 14.15677868 414.74278737 13.30859375 413.6484375 C7.86629003 406.65062153 2.29687929 399.75982479 -3.30761719 392.89160156 C-6.7993799 388.60597451 -10.24226726 384.28662403 -13.64453125 379.9296875 C-19.7036667 372.17531853 -25.92186005 364.55300685 -32.14453125 356.9296875 C-38.82550136 348.74491169 -45.47822885 340.5456502 -51.98095703 332.21826172 C-55.48247097 327.74487835 -59.05278817 323.33083747 -62.64453125 318.9296875 C-67.15213098 313.40629065 -71.59295767 307.83784314 -75.98046875 302.21875 C-79.48229372 297.74532042 -83.05264289 293.33101548 -86.64453125 288.9296875 C-91.15213098 283.40629065 -95.59295767 277.83784314 -99.98046875 272.21875 C-103.48229372 267.74532042 -107.05264289 263.33101548 -110.64453125 258.9296875 C-115.15213098 253.40629065 -119.59295767 247.83784314 -123.98046875 242.21875 C-127.48229372 237.74532042 -131.05264289 233.33101548 -134.64453125 228.9296875 C-139.15149695 223.40706756 -143.59809355 217.84414211 -147.97607422 212.21875 C-150.40752152 209.10480662 -152.87624638 206.03003096 -155.40234375 202.9921875 C-173.14442983 181.63831041 -185.39246677 159.62208667 -183.14453125 130.9296875 C-180.67898582 107.37573846 -170.14804783 87.04995201 -152.23828125 71.37890625 C-132.39064082 55.66619091 -108.84645746 50.31188505 -83.81982422 53.19775391 C-62.67933337 56.80536362 -45.04331881 71.46962406 -28.62890625 84.25 C-22.05865692 89.33751428 -15.31574954 94.20031198 -8.61621094 99.11523438 C-4.62149388 102.04774496 -0.63327037 104.98905411 3.35546875 107.9296875 C4.93876934 109.09639861 6.52210271 110.26306522 8.10546875 111.4296875 C11.27213542 113.76302083 14.43880208 116.09635417 17.60546875 118.4296875 C18.38946045 119.00734863 19.17345215 119.58500977 19.98120117 120.18017578 C21.56215858 121.34512599 23.14305067 122.51016484 24.72387695 123.67529297 C28.71802703 126.6189573 32.71335305 129.56100096 36.7109375 132.5 C44.11566716 137.94605924 51.50950259 143.40454001 58.85546875 148.9296875 C64.9008427 153.47372176 70.9633254 157.99408871 77.04296875 162.4921875 C77.84541016 163.08837891 78.64785156 163.68457031 79.47460938 164.29882812 C83.17577463 167.03146416 86.83929451 169.66807435 90.85546875 171.9296875 C97.88207856 167.00678914 104.83179926 162.02732718 111.54296875 156.6796875 C119.33513404 150.48049363 127.35991377 144.61057489 135.39550781 138.73242188 C137.82121782 136.95478762 140.24167049 135.17026012 142.66015625 133.3828125 C149.58755317 128.26342712 156.52198066 123.1576878 163.5222168 118.13818359 C171.90445973 112.12743427 180.13202523 105.93854347 188.31762695 99.6628418 C193.65658104 95.5783718 199.03867995 91.58420364 204.54443359 87.72802734 C207.95426595 85.32725759 211.28835318 82.84780463 214.59375 80.3046875 C238.44598092 61.98095254 260.06592444 50.56429989 290.85546875 52.9296875 C307.0981416 55.14260954 321.43684533 62.3713437 333.85546875 72.9296875 C334.67144531 73.55617188 335.48742187 74.18265625 336.328125 74.828125 C350.60716711 86.70157887 360.27962235 106.80688132 362.85546875 124.9296875 C365.3754615 158.8856163 354.12761729 180.28541718 333.1484375 205.88671875 C330.16878546 209.53062994 327.25030705 213.21823365 324.35546875 216.9296875 C319.8738053 222.67005182 315.29589653 228.32662811 310.69140625 233.96875 C307.20016792 238.25420368 303.75727987 242.57298203 300.35546875 246.9296875 C296.41351799 251.97815075 292.40515162 256.96724919 288.35546875 261.9296875 C281.38041061 270.4789559 274.43536761 279.07047727 267.85546875 287.9296875 C270.43557071 289.41474619 273.01924434 290.89286061 275.60546875 292.3671875 C276.33507812 292.78806641 277.0646875 293.20894531 277.81640625 293.64257812 C278.52539062 294.04541016 279.234375 294.44824219 279.96484375 294.86328125 C280.61420898 295.23509521 281.26357422 295.60690918 281.93261719 295.98999023 C283.89374009 296.9483907 285.7251131 297.4799918 287.85546875 297.9296875 C293.92445059 290.862904 299.86460755 283.72516253 305.5871582 276.37451172 C309.11907202 271.84494895 312.72260357 267.37858462 316.35546875 262.9296875 C320.40538299 257.967443 324.41352234 252.97814518 328.35546875 247.9296875 C332.2974216 242.88122157 336.30590795 237.89222722 340.35546875 232.9296875 C345.83428612 226.21129678 351.23034222 219.43531929 356.55126953 212.59130859 C357.83351078 210.95766315 359.13635558 209.34275079 360.4453125 207.73046875 C378.39731383 185.41157867 388.4740548 157.67320987 385.64453125 128.77539062 C382.33466472 99.2624141 369.11550235 73.41385993 346.41015625 53.9296875 C323.37605086 35.89687105 294.26746003 27.05958829 265.08984375 30.42578125 C241.32721433 33.60178486 224.1528873 44.32480528 205.57080078 58.82324219 C201.32689755 62.11549152 197.03162123 65.33779179 192.73046875 68.5546875 C191.90877197 69.17005371 191.0870752 69.78541992 190.24047852 70.41943359 C177.78430034 79.73611015 165.25051107 88.94229353 152.62890625 98.03344727 C141.94135203 105.73965031 131.33139348 113.55362928 120.79833984 121.46972656 C119.51329423 122.43536778 118.22717714 123.39958492 116.93994141 124.36230469 C113.20061588 127.15951931 109.48229037 129.98158247 105.77734375 132.82421875 C104.05364944 134.13055679 102.32969514 135.43655184 100.60546875 136.7421875 C99.79464844 137.37189453 98.98382813 138.00160156 98.1484375 138.65039062 C97.38660156 139.22337891 96.62476563 139.79636719 95.83984375 140.38671875 C95.16663086 140.90210205 94.49341797 141.41748535 93.79980469 141.94848633 C91.85546875 142.9296875 91.85546875 142.9296875 89.828125 142.73242188 C87.75780466 141.88994499 86.12671554 140.92788419 84.30859375 139.62890625 C83.63715332 139.15275879 82.96571289 138.67661133 82.27392578 138.18603516 C81.55833496 137.66831543 80.84274414 137.1505957 80.10546875 136.6171875 C79.35249512 136.07884277 78.59952148 135.54049805 77.82373047 134.98583984 C71.4836135 130.43256746 65.23594114 125.75935624 59.0078125 121.0546875 C52.14732482 115.87770469 45.20785438 110.80690061 38.28320312 105.71630859 C35.87294336 103.94254744 33.46533451 102.16525106 31.05859375 100.38671875 C23.3526912 94.69424054 15.63003132 89.0281206 7.85546875 83.4296875 C-2.38149691 76.05808726 -12.52698235 68.56402154 -22.66894531 61.0625 C-27.49704995 57.4918879 -32.33041806 53.92873474 -37.17382812 50.37890625 C-38.81088292 49.17504633 -40.439723 47.96002522 -42.06640625 46.7421875 C-55.53621873 36.88193262 -71.33742241 30.54364581 -88.14453125 29.9296875 C-89.43488281 29.878125 -90.72523438 29.8265625 -92.0546875 29.7734375 C-122.4835791 28.96410488 -149.42817707 39.31534679 -172.0390625 59.515625 C-191.87558827 78.43661882 -204.40212779 104.95553024 -205.34765625 132.48828125 C-205.83406369 162.8407252 -196.42139898 188.04720975 -176.73925781 211.04052734 C-174.2918069 213.93984994 -171.96892303 216.93150338 -169.64453125 219.9296875 C-165.70454388 224.97964206 -161.69424732 229.96735936 -157.64453125 234.9296875 C-153.13693152 240.45308435 -148.69610483 246.02153186 -144.30859375 251.640625 C-140.80676878 256.11405458 -137.23641961 260.52835952 -133.64453125 264.9296875 C-129.13693152 270.45308435 -124.69610483 276.02153186 -120.30859375 281.640625 C-116.80676878 286.11405458 -113.23641961 290.52835952 -109.64453125 294.9296875 C-105.59477166 299.89206898 -101.58667829 304.88137717 -97.64453125 309.9296875 C-91.5853958 317.68405647 -85.36720245 325.30636815 -79.14453125 332.9296875 C-72.94018824 340.5305532 -66.74132784 348.13019876 -60.70703125 355.8671875 C-54.84968387 363.37353367 -48.78150031 370.70237237 -42.71044922 378.03613281 C-39.16924942 382.31825717 -35.65648354 386.62357514 -32.14453125 390.9296875 C-31.66161621 391.52072266 -31.17870117 392.11175781 -30.68115234 392.72070312 C-23.5771908 401.41764773 -16.54088387 410.16044787 -9.63818359 419.01806641 C-7.98600119 421.13257903 -6.32513554 423.24012163 -4.6640625 425.34765625 C20.29307186 457.08840745 36.07933977 489.36295847 31.359375 530.921875 C26.60657845 566.11264163 9.07006574 597.32584534 -19.05859375 619.1953125 C-49.02345101 640.89138636 -83.73893708 648.93055792 -120.26025391 643.4765625 C-153.1083824 637.84160479 -183.18000137 619.03837335 -202.51953125 591.9296875 C-222.83541127 562.162243 -231.20539673 527.72310061 -225.14453125 491.9296875 C-218.98152915 459.44335441 -200.01841671 431.87947764 -177.51025391 408.37207031 C-175.79446895 406.55997565 -174.14891411 404.69461607 -172.51953125 402.8046875 C-167.85649056 397.39792134 -162.98280786 392.17917387 -158.14453125 386.9296875 C-154.76072689 387.49048654 -153.40623163 388.36958343 -151.34765625 391.08984375 C-150.86425781 391.71826172 -150.38085938 392.34667969 -149.8828125 392.99414062 C-149.39167969 393.65349609 -148.90054688 394.31285156 -148.39453125 394.9921875 C-147.88792969 395.65541016 -147.38132812 396.31863281 -146.859375 397.00195312 C-145.61201239 398.6376456 -144.37705307 400.28278334 -143.14453125 401.9296875 C-147.4925726 407.15004197 -152.09949926 411.93534969 -156.95703125 416.6796875 C-163.13020487 422.79395545 -168.88716852 428.99690149 -174.14453125 435.9296875 C-174.56508789 436.46851563 -174.98564453 437.00734375 -175.41894531 437.5625 C-195.89579245 463.8246821 -208.72625828 494.71333481 -204.84423828 528.546875 C-200.59143763 557.06501847 -187.12924907 583.04522824 -164.14453125 600.9296875 C-139.11267145 618.88798887 -109.73502077 627.04061072 -78.94921875 622.2421875 C-74.59567132 621.40808802 -70.37036456 620.26045788 -66.14453125 618.9296875 C-65.46390625 618.72069824 -64.78328125 618.51170898 -64.08203125 618.29638672 C-48.95338464 613.51496077 -35.94398874 605.5071947 -24.14453125 594.9296875 C-23.45101562 594.31867187 -22.7575 593.70765625 -22.04296875 593.078125 C-7.86605119 579.80491533 1.70851567 561.45092019 6.85546875 542.9296875 C7.17515625 541.80820312 7.49484375 540.68671875 7.82421875 539.53125 C14.52614652 511.91682538 8.5911869 483.80114749 -5.73046875 459.7421875 C-9.42032828 453.78325919 -13.67388051 448.3172232 -18.14453125 442.9296875 C-18.58023438 442.40310547 -19.0159375 441.87652344 -19.46484375 441.33398438 C-22.65231608 437.49876548 -25.89345307 433.71098919 -29.14453125 429.9296875 C-30.12529061 428.7841029 -31.10575561 427.63826623 -32.0859375 426.4921875 C-35.10162474 422.96804996 -38.12260488 419.44847524 -41.14453125 415.9296875 C-44.6623117 411.83351797 -48.17801128 407.73560176 -51.6875 403.63232422 C-52.64498819 402.51343637 -53.60329726 401.39525037 -54.5625 400.27783203 C-60.15644693 393.75743661 -65.60078357 387.14984748 -70.87915039 380.37109375 C-74.40972285 375.84238488 -78.01261671 371.37742045 -81.64453125 366.9296875 C-86.15230774 361.40643744 -90.59296064 355.83783933 -94.98046875 350.21875 C-98.48229372 345.74532042 -102.05264289 341.33101548 -105.64453125 336.9296875 C-110.15213098 331.40629065 -114.59295767 325.83784314 -118.98046875 320.21875 C-122.48229372 315.74532042 -126.05264289 311.33101548 -129.64453125 306.9296875 C-134.15213098 301.40629065 -138.59295767 295.83784314 -142.98046875 290.21875 C-146.48229372 285.74532042 -150.05264289 281.33101548 -153.64453125 276.9296875 C-158.15213098 271.40629065 -162.59295767 265.83784314 -166.98046875 260.21875 C-170.48229539 255.74531828 -174.0527328 251.33109103 -177.64453125 246.9296875 C-182.73547524 240.68910265 -187.75573473 234.3988069 -192.70703125 228.046875 C-194.19365394 226.14571329 -195.69100828 224.25280118 -197.20703125 222.375 C-200.51323754 218.25649302 -203.30742625 214.16142134 -205.76953125 209.48828125 C-207.12241186 206.97084717 -208.57315363 204.52472943 -210.03833008 202.0715332 C-226.78221736 173.72638414 -231.46154131 138.94452932 -223.66308594 106.93066406 C-214.94239002 73.27961712 -193.9505312 44.32343954 -164.19042969 26.12304688 C-153.16689044 19.69308747 -141.45716334 15.17200348 -129.14453125 11.9296875 C-128.01144531 11.61 -126.87835938 11.2903125 -125.7109375 10.9609375 C-95.66322571 3.85216888 -61.90469184 8.86536681 -35.56762695 24.74438477 C-23.30027298 32.4398942 -11.93519838 41.51530284 -0.50390625 50.37890625 C4.24736027 54.02029308 9.12960732 57.48296461 13.99243164 60.97290039 C18.99226489 64.5669087 23.94198481 68.21864141 28.85546875 71.9296875 C34.47103581 76.16951407 40.14104585 80.32410287 45.85546875 84.4296875 C52.19597408 88.98660902 58.47669094 93.61239756 64.7109375 98.31347656 C73.04010451 104.58950391 81.45067581 110.75552441 89.85546875 116.9296875 C94.62722388 114.32800191 98.88996136 111.49337059 103.10546875 108.0546875 C111.03345135 101.71165274 119.20662662 95.72196161 127.39990234 89.72802734 C131.3918966 86.80448094 135.37327223 83.86655744 139.35546875 80.9296875 C144.13884365 77.40382319 148.92318847 73.87929809 153.7109375 70.359375 C158.4302477 66.8888464 163.14524306 63.41253609 167.85546875 59.9296875 C168.5633252 59.40632813 169.27118164 58.88296875 170.00048828 58.34375 C176.55841323 53.48579949 183.07233107 48.60233533 189.38916016 43.43310547 C215.70180213 21.94898332 243.38096872 8.50553591 277.85546875 8.5546875 C278.53355591 8.55556366 279.21164307 8.55643982 279.91027832 8.55734253 C315.62092363 8.70883652 347.06947597 23.18964843 372.29589844 48.30859375 C396.8328288 73.81348066 407.55133697 107.02561628 407.33081055 141.890625 C407.08281984 152.60273062 405.72134497 162.61826965 402.85546875 172.9296875 C402.59854248 173.91050293 402.59854248 173.91050293 402.33642578 174.91113281 C398.01054448 191.09267153 389.43179327 206.05707699 378.85546875 218.9296875 C377.85616233 220.1583595 376.85750365 221.38755852 375.859375 222.6171875 C374.22030418 224.63396809 372.57935613 226.64905297 370.93212891 228.65917969 C366.98763969 233.48465422 363.17700226 238.39633771 359.41796875 243.3671875 C354.41918217 249.96964417 349.23912141 256.39354235 343.94775391 262.76318359 C339.87228388 267.67441454 335.89479023 272.64967337 331.97485352 277.68554688 C328.43863631 282.21792731 324.81142105 286.67077194 321.16796875 291.1171875 C316.16269651 297.23384228 311.39511553 303.45623348 306.85546875 309.9296875 C309.95746325 313.27261361 313.29122237 315.69213551 317.10546875 318.1796875 C318.183125 318.88609375 319.26078125 319.5925 320.37109375 320.3203125 C321.1909375 320.85140625 322.01078125 321.3825 322.85546875 321.9296875 C327.0944556 317.85771514 330.82610726 313.47897906 334.54296875 308.9296875 C335.16163818 308.1756665 335.78030762 307.42164551 336.41772461 306.64477539 C340.82206073 301.25370352 345.08644751 295.77518756 349.30078125 290.234375 C352.75825725 285.72402764 356.37329675 281.34137387 359.96899414 276.94116211 C363.93825661 272.07728671 367.83346461 267.16156527 371.69555664 262.21240234 C374.61719411 258.47864334 377.58780245 254.78944279 380.59082031 251.12084961 C413.30633651 211.142255 431.82432657 171.85858878 427.62402344 119.01806641 C427.06588531 113.89325393 426.10933358 108.92663503 424.85546875 103.9296875 C424.68917969 103.23987793 424.52289062 102.55006836 424.3515625 101.83935547 C417.71178861 74.99130678 403.68818565 51.94161687 384.85546875 31.9296875 C384.26894531 31.27871094 383.68242188 30.62773437 383.078125 29.95703125 C358.6488914 3.92412805 320.39757773 -11.17653696 285.09375 -12.35546875 C243.86320549 -13.14070562 214.69520941 -0.53617697 182.72460938 24.57666016 C175.02560904 30.61901833 167.14697623 36.4046492 159.24658203 42.1796875 C155.27535067 45.08613904 151.31600807 48.00869297 147.35546875 50.9296875 C145.7721927 52.0964319 144.18885935 53.26309856 142.60546875 54.4296875 C141.82171875 55.0071875 141.03796875 55.5846875 140.23046875 56.1796875 C133.10546876 61.4296875 133.10546876 61.4296875 130.7277832 63.18164062 C129.15336893 64.34175241 127.57898712 65.50190826 126.00463867 66.66210938 C121.91011656 69.67943828 117.81493814 72.69587062 113.71875 75.7109375 C112.873125 76.33355469 112.0275 76.95617187 111.15625 77.59765625 C109.55359717 78.77763141 107.95074792 79.95733986 106.34765625 81.13671875 C105.61417969 81.67683594 104.88070313 82.21695313 104.125 82.7734375 C103.05886475 83.55074219 103.05886475 83.55074219 101.97119141 84.34375 C100.52280289 85.42945641 99.10121007 86.55158705 97.70458984 87.703125 C92.55232289 91.88760942 92.55232289 91.88760942 89.203125 92.08984375 C86.12543295 90.56892105 83.85723552 88.65235041 81.29296875 86.3671875 C77.38156236 82.9691683 73.46436092 79.87934477 69.10546875 77.0546875 C64.32924461 73.95944614 59.76323075 70.67759056 55.23046875 67.2421875 C49.55155329 62.94028822 43.82852717 58.71217125 38.04296875 54.5546875 C29.39708282 48.33687704 20.81978691 42.02957995 12.25537109 35.70019531 C9.85048104 33.92600786 7.44153039 32.15748101 5.03125 30.390625 C3.43095762 29.21618938 1.83069707 28.0417104 0.23046875 26.8671875 C-0.55545654 26.29154053 -1.34138184 25.71589355 -2.15112305 25.12280273 C-6.01037063 22.28454546 -9.83066879 19.41123782 -13.58984375 16.44140625 C-32.24508094 1.71690636 -52.49663504 -7.49563051 -76.14453125 -11.0703125 C-77.33949219 -11.25335938 -78.53445313 -11.43640625 -79.765625 -11.625 C-96.38403026 -13.61825378 -113.8321113 -12.74349926 -130.14453125 -9.0703125 C-130.88960937 -8.90402344 -131.6346875 -8.73773438 -132.40234375 -8.56640625 C-158.97115115 -2.40353855 -182.40900539 11.24589813 -202.14453125 29.9296875 C-203.02882813 30.74953125 -203.913125 31.569375 -204.82421875 32.4140625 C-232.75932744 59.16212691 -246.35468251 96.47509934 -248.33203125 134.5390625 C-249.10176287 176.29700306 -232.34511387 211.27149182 -206.43359375 242.890625 C-203.47339415 246.51055568 -200.57935866 250.17738836 -197.70703125 253.8671875 C-193.6054629 259.12748475 -189.39862651 264.29210247 -185.14453125 269.4296875 C-179.01641539 276.83324861 -173.04793184 284.34647526 -167.14453125 291.9296875 C-160.83996876 300.01240055 -154.4620413 308.02622273 -147.98095703 315.96826172 C-144.03222632 320.81501588 -140.15598045 325.7132701 -136.30859375 330.640625 C-132.26534063 335.80570557 -128.12605878 340.88967993 -123.97827148 345.97094727 C-120.50559643 350.23279659 -117.08626819 354.53099851 -113.70703125 358.8671875 C-109.60515202 364.1272444 -105.39875087 369.29219113 -101.14453125 374.4296875 C-96.43155693 380.1211869 -91.80000281 385.86293196 -87.2578125 391.69140625 C-83.23633652 396.84171759 -79.11431042 401.90668069 -74.98022461 406.96679688 C-71.47597804 411.26470261 -68.04264516 415.61014765 -64.64453125 419.9921875 C-60.84123344 424.88798087 -56.86704806 429.59068837 -52.76953125 434.2421875 C-29.86640618 460.35093162 -9.90618592 488.63479764 -12.14453125 524.9296875 C-14.52264354 547.1254022 -25.79630801 567.69806226 -42.77734375 582.09375 C-62.3292487 597.25776869 -84.8004463 603.35661148 -109.27539062 600.69824219 C-131.20952608 597.68203211 -151.74975018 586.16742166 -165.45703125 568.7421875 C-175.55077841 555.24878212 -182.44592521 538.8999925 -183.14453125 521.9296875 C-183.19609375 520.98222656 -183.24765625 520.03476562 -183.30078125 519.05859375 C-184.2259322 487.56491362 -167.55607513 459.87182055 -146.67163086 437.60961914 C-141.26737468 431.94687141 -135.72353692 426.41966649 -130.14453125 420.9296875 C-126.15680458 422.48810942 -124.0337493 425.04865896 -121.33203125 428.3046875 C-120.11580078 429.73941406 -120.11580078 429.73941406 -118.875 431.203125 C-117.14453125 433.9296875 -117.14453125 433.9296875 -117.36303711 435.91503906 C-118.2406042 438.17735823 -119.15096734 439.24391111 -120.91796875 440.890625 C-121.4900708 441.4371875 -122.06217285 441.98375 -122.65161133 442.546875 C-123.2680249 443.12695312 -123.88443848 443.70703125 -124.51953125 444.3046875 C-144.06720783 463.3059772 -161.16011236 487.63714472 -161.58203125 515.8046875 C-161.42480659 534.04274845 -154.35633859 549.44496872 -141.7734375 562.52734375 C-127.62343795 575.45787826 -110.39400142 579.69028453 -91.76953125 579.296875 C-75.7776292 578.53715189 -60.73942123 570.82047667 -49.87890625 559.078125 C-37.35433335 543.56345137 -32.61182111 526.52618794 -34.14453125 506.9296875 C-37.58878153 484.5305028 -54.63926922 466.55920527 -68.47509766 449.67456055 C-71.8206008 445.58826018 -75.07806964 441.44960729 -78.26953125 437.2421875 C-82.09329453 432.22660189 -86.07783758 427.39044102 -90.17578125 422.59741211 C-93.6035544 418.58596807 -96.92370687 414.50124187 -100.203125 410.3671875 C-102.22507824 407.82855808 -104.27425394 405.3143542 -106.33203125 402.8046875 C-114.63248441 392.67556308 -122.91980939 382.54151139 -130.97998047 372.21948242 C-134.48184965 367.74571491 -138.05245821 363.33124179 -141.64453125 358.9296875 C-146.15213098 353.40629065 -150.59295767 347.83784314 -154.98046875 342.21875 C-158.48229372 337.74532042 -162.05264289 333.33101548 -165.64453125 328.9296875 C-170.15213098 323.40629065 -174.59295767 317.83784314 -178.98046875 312.21875 C-182.48229372 307.74532042 -186.05264289 303.33101548 -189.64453125 298.9296875 C-194.15213098 293.40629065 -198.59295767 287.83784314 -202.98046875 282.21875 C-206.48229684 277.74531642 -210.05281565 273.33116021 -213.64453125 268.9296875 C-219.12334862 262.21129678 -224.51940472 255.43531929 -229.84033203 248.59130859 C-231.12257328 246.95766315 -232.42541808 245.34275079 -233.734375 243.73046875 C-240.23137139 235.64871774 -245.39248653 227.1379886 -250.14453125 217.9296875 C-250.49789551 217.24890137 -250.85125977 216.56811523 -251.21533203 215.86669922 C-272.16563723 174.96188089 -274.84697325 126.80801255 -260.92529297 83.29541016 C-246.37662444 39.21267155 -214.26291233 3.7759224 -173.08984375 -17.1640625 C-115.70307005 -45.35606715 -50.13976702 -38.36020068 0 0 Z M252.85546875 304.9296875 C251.00998994 307.17062605 249.17927138 309.42121938 247.35546875 311.6796875 C246.83082031 312.31390625 246.30617188 312.948125 245.765625 313.6015625 C245.26933594 314.2203125 244.77304687 314.8390625 244.26171875 315.4765625 C243.57045898 316.32492676 243.57045898 316.32492676 242.86523438 317.19042969 C241.52074298 319.17104325 241.52074298 319.17104325 241.85546875 322.9296875 C244.75886054 324.49737631 247.67980105 326.02903256 250.60546875 327.5546875 C251.43046875 328.00070312 252.25546875 328.44671875 253.10546875 328.90625 C253.9046875 329.31875 254.70390625 329.73125 255.52734375 330.15625 C256.6270752 330.73753662 256.6270752 330.73753662 257.74902344 331.33056641 C259.86525366 332.14585668 259.86525366 332.14585668 261.96484375 331.23046875 C264.98566561 329.15209338 266.95851575 326.22554216 269.10546875 323.3046875 C269.564375 322.69367188 270.02328125 322.08265625 270.49609375 321.453125 C271.62298127 319.9506083 272.74019312 318.44084341 273.85546875 316.9296875 C270.30774511 312.69530767 266.03421197 310.88658745 261.10546875 308.6796875 C260.31269531 308.31617188 259.51992188 307.95265625 258.703125 307.578125 C256.75752396 306.6873679 254.80697221 305.80743797 252.85546875 304.9296875 Z M291.85546875 326.9296875 C289.72202068 329.29161212 287.77833713 331.81787179 285.79296875 334.3046875 C285.22513672 335.00335938 284.65730469 335.70203125 284.07226562 336.421875 C283.53537109 337.0921875 282.99847656 337.7625 282.4453125 338.453125 C281.70075806 339.3800415 281.70075806 339.3800415 280.94116211 340.32568359 C279.66862436 341.88291582 279.66862436 341.88291582 279.85546875 343.9296875 C281.46905216 345.25347381 281.46905216 345.25347381 283.57421875 346.53125 C284.34121094 347.02109375 285.10820313 347.5109375 285.8984375 348.015625 C286.70925781 348.52351563 287.52007813 349.03140625 288.35546875 349.5546875 C289.16628906 350.0703125 289.97710938 350.5859375 290.8125 351.1171875 C292.82290845 352.39438816 294.83727272 353.66484187 296.85546875 354.9296875 C300.53547309 352.17129546 303.35052764 349.30893368 306.16796875 345.6796875 C306.86535156 344.78765625 307.56273437 343.895625 308.28125 342.9765625 C308.80074219 342.30109375 309.32023438 341.625625 309.85546875 340.9296875 C308.51576626 337.79107501 307.26734217 336.20839317 304.4140625 334.3515625 C303.74826172 333.91328125 303.08246094 333.475 302.39648438 333.0234375 C301.70232422 332.58 301.00816406 332.1365625 300.29296875 331.6796875 C299.59494141 331.22078125 298.89691406 330.761875 298.17773438 330.2890625 C295.23256006 327.97868278 295.23256006 327.97868278 291.85546875 326.9296875 Z M225.85546875 338.9296875 C223.74594406 341.48781769 221.64383451 344.05194333 219.54296875 346.6171875 C218.94806641 347.33841797 218.35316406 348.05964844 217.74023438 348.80273438 C214.81648407 352.3798367 212.07966417 355.85868721 209.85546875 359.9296875 C213.09368146 361.49705382 216.34748032 363.02890779 219.60546875 364.5546875 C220.52585937 365.00070312 221.44625 365.44671875 222.39453125 365.90625 C223.28398438 366.31875 224.1734375 366.73125 225.08984375 367.15625 C226.31525879 367.73753662 226.31525879 367.73753662 227.56542969 368.33056641 C229.8339221 369.14172372 229.8339221 369.14172372 231.95117188 368.26489258 C235.49062296 365.78319284 237.9234039 362.3432949 240.60546875 358.9921875 C241.20746094 358.26322266 241.80945313 357.53425781 242.4296875 356.78320312 C242.99816406 356.08001953 243.56664062 355.37683594 244.15234375 354.65234375 C244.67151367 354.01047119 245.19068359 353.36859863 245.72558594 352.70727539 C247.12368521 350.8587642 247.12368521 350.8587642 246.85546875 347.9296875 C244.29660371 346.60966194 241.73379807 345.29854968 239.16796875 343.9921875 C238.08612305 343.43241211 238.08612305 343.43241211 236.98242188 342.86132812 C233.29041133 340.99003511 230.01853779 339.44699194 225.85546875 338.9296875 Z M326.85546875 351.9296875 C324.94116028 353.97397988 323.13960987 356.02673168 321.35546875 358.1796875 C320.85660156 358.76621094 320.35773438 359.35273438 319.84375 359.95703125 C317.45201872 362.8104372 315.29953002 365.45706396 313.85546875 368.9296875 C314.54769531 369.53103516 314.54769531 369.53103516 315.25390625 370.14453125 C317.4597016 372.06697344 319.6582808 373.99741182 321.85546875 375.9296875 C322.58644775 376.57252686 323.31742676 377.21536621 324.07055664 377.87768555 C330.36906143 383.48025957 336.41123032 389.29920374 342.36938477 395.25830078 C343.91469941 396.8014228 345.46787321 398.33633056 347.02148438 399.87109375 C353.41857756 406.23236311 359.24296628 412.85425058 364.85546875 419.9296875 C365.8664506 421.13931251 366.88147254 422.34558447 367.90234375 423.546875 C379.47053163 437.37894931 389.78577092 452.86731218 395.85546875 469.9296875 C396.07638184 470.54054199 396.29729492 471.15139648 396.52490234 471.78076172 C407.21450923 501.79535189 407.40956083 536.8218681 394 566.125 C392.07746316 570.12949897 389.99174383 574.03603571 387.85546875 577.9296875 C386.98728516 579.55390625 386.98728516 579.55390625 386.1015625 581.2109375 C376.41518921 598.65090426 361.72991914 613.41738944 344.85546875 623.9296875 C343.91574219 624.54199219 342.97601562 625.15429688 342.0078125 625.78515625 C315.08878792 642.55863374 279.89478232 647.44804799 249.046875 640.96484375 C219.97195813 634.08389398 192.77060337 618.15296811 174.85546875 593.9296875 C174.26636719 593.1665625 173.67726563 592.4034375 173.0703125 591.6171875 C152.63302041 564.05710341 145.29169867 529.63869059 149.91796875 495.9296875 C154.2606507 468.53489456 167.07000249 445.58417444 185.6484375 425.37890625 C188.71926517 421.9711028 191.58681043 418.41222887 194.47265625 414.84765625 C197.06303779 411.6755005 199.7027305 408.54963542 202.35546875 405.4296875 C204.19066913 403.26459607 206.02384184 401.09780274 207.85546875 398.9296875 C208.53101807 398.13038818 208.53101807 398.13038818 209.22021484 397.31494141 C210.50003349 395.79536164 211.77169027 394.26891912 213.04296875 392.7421875 C213.77902344 391.86175781 214.51507812 390.98132813 215.2734375 390.07421875 C217.05335173 388.10560066 217.05335173 388.10560066 216.85546875 385.9296875 C210.25546875 382.9596875 203.65546875 379.9896875 196.85546875 376.9296875 C193.0293031 379.99062002 190.64807464 382.20225184 187.73046875 385.9296875 C184.4082807 390.07966327 180.97742643 394.04509527 177.35546875 397.9296875 C172.27371915 403.40552119 167.49513441 409.07160529 162.85546875 414.9296875 C162.04207031 415.94804688 161.22867188 416.96640625 160.390625 418.015625 C140.67556253 442.95274131 125.9362842 473.59529183 124.85546875 505.9296875 C124.8296875 506.59452148 124.80390625 507.25935547 124.77734375 507.94433594 C123.34705385 549.86970876 137.77605905 588.97851467 166.32421875 619.71484375 C188.93714213 643.39310848 217.61590146 658.97202325 249.85546875 664.9296875 C251.62664062 665.26613281 251.62664062 665.26613281 253.43359375 665.609375 C291.83907786 671.78470615 332.13155071 661.86144554 363.6640625 639.34375 C383.98658009 624.1847917 400.50353368 605.67885215 411.85546875 582.9296875 C412.17209473 582.29772461 412.4887207 581.66576172 412.81494141 581.01464844 C430.75917354 544.45151853 431.6148515 504.0108862 418.60546875 465.8671875 C415.40218861 456.8273565 411.49804502 448.31481479 406.85546875 439.9296875 C406.33364014 438.98101807 406.33364014 438.98101807 405.80126953 438.01318359 C400.70563197 428.86435697 394.8161476 420.61813557 388.17236328 412.53466797 C386.93898031 411.03146818 385.72274044 409.5142483 384.5078125 407.99609375 C379.92676971 402.30008817 375.13121465 396.84881666 370.1796875 391.47265625 C368.25440969 389.36617583 366.38952694 387.2295227 364.54296875 385.0546875 C357.01538454 376.40331703 348.67632786 368.25234726 339.85546875 360.9296875 C338.911875 360.13175781 337.96828125 359.33382813 336.99609375 358.51171875 C332.45101518 353.99583729 332.45101518 353.99583729 326.85546875 351.9296875 Z M265.85546875 359.9296875 C263.98754225 361.95475703 262.22464001 363.98975756 260.48046875 366.1171875 C259.99835937 366.69533203 259.51625 367.27347656 259.01953125 367.86914062 C258.06928511 369.01175996 257.12418751 370.15868281 256.18457031 371.31005859 C254.97837135 372.77991971 253.7426908 374.22546382 252.50390625 375.66796875 C250.56096811 377.86730366 250.56096811 377.86730366 250.85546875 380.9296875 C252.2972244 382.27814295 252.2972244 382.27814295 254.25 383.41015625 C254.95833984 383.85166016 255.66667969 384.29316406 256.39648438 384.74804688 C257.14607422 385.19986328 257.89566406 385.65167969 258.66796875 386.1171875 C259.77495117 386.81231445 259.77495117 386.81231445 260.90429688 387.52148438 C265.06143507 390.22097157 265.06143507 390.22097157 269.85546875 390.9296875 C271.8162229 388.72088613 273.59197192 386.53725355 275.35546875 384.1796875 C276.08443359 383.22835938 276.08443359 383.22835938 276.828125 382.2578125 C277.76626139 381.03082212 278.69755715 379.79856361 279.62109375 378.56054688 C280.62786822 377.2303939 281.68771175 375.94054623 282.76171875 374.6640625 C283.12265625 374.09171875 283.48359375 373.519375 283.85546875 372.9296875 C282.75509698 369.62857219 282.31041163 369.27467749 279.546875 367.44921875 C278.88236328 367.00771484 278.21785156 366.56621094 277.53320312 366.11132812 C276.83517578 365.65951172 276.13714844 365.20769531 275.41796875 364.7421875 C274.72380859 364.27876953 274.02964844 363.81535156 273.31445312 363.33789062 C269.86118895 360.80741703 269.86118895 360.80741703 265.85546875 359.9296875 Z M299.85546875 384.9296875 C297.91167944 387.0960481 296.16074221 389.23565561 294.41796875 391.5546875 C293.70157227 392.48087891 293.70157227 392.48087891 292.97070312 393.42578125 C290.10313799 397.16266312 287.42439597 400.9821634 284.85546875 404.9296875 C285.53351563 405.47496094 286.2115625 406.02023437 286.91015625 406.58203125 C303.12548337 419.72048882 319.19951533 434.06727421 332.0234375 450.609375 C333.85649338 452.93098522 335.81883668 455.03628054 337.85546875 457.1796875 C346.21464462 466.52327729 352.14182661 478.01690604 355.85546875 489.9296875 C356.17386719 490.92226563 356.49226562 491.91484375 356.8203125 492.9375 C362.90524439 515.76300488 359.43781332 539.7862677 347.92431641 560.12695312 C336.73704143 578.99557771 318.8709932 591.81670245 297.85546875 597.8046875 C275.68640738 603.41800753 252.7264586 599.63979642 232.79296875 588.8046875 C225.99522906 584.67396061 220.46425091 579.5145346 214.85546875 573.9296875 C214.12457031 573.23359375 213.39367187 572.5375 212.640625 571.8203125 C198.55355325 557.42639364 192.1607227 535.86723737 191.54296875 516.1796875 C192.15905118 487.06979252 208.19312999 463.11892302 227.5 442.4921875 C230.63200599 439.0848974 233.51591744 435.50241595 236.421875 431.90234375 C239.77692177 427.8041245 243.23193342 423.79502771 246.69482422 419.7878418 C248.08756341 418.17337183 249.47190047 416.55201542 250.85546875 414.9296875 C251.63277344 414.02992188 252.41007813 413.13015625 253.2109375 412.203125 C255.14851892 409.99221607 255.14851892 409.99221607 254.85546875 406.9296875 C252.36544242 404.80999777 249.4347395 403.30824334 246.60546875 401.6796875 C245.82816406 401.20789063 245.05085937 400.73609375 244.25 400.25 C243.49589844 399.80914063 242.74179687 399.36828125 241.96484375 398.9140625 C241.27358398 398.50897461 240.58232422 398.10388672 239.87011719 397.68652344 C237.3677522 396.74646873 236.30423007 396.90313934 233.85546875 397.9296875 C232.33977602 399.18218558 232.33977602 399.18218558 231.04296875 400.81640625 C230.53121094 401.41775391 230.01945312 402.01910156 229.4921875 402.63867188 C228.95207031 403.29158203 228.41195312 403.94449219 227.85546875 404.6171875 C227.28441406 405.29201172 226.71335937 405.96683594 226.125 406.66210938 C224.93916646 408.06390598 223.75690392 409.46873079 222.578125 410.87646484 C220.50937194 413.34219801 218.41653793 415.786355 216.31835938 418.22705078 C215.33573634 419.37071117 214.35529624 420.51625044 213.37695312 421.66357422 C210.82735474 424.65175031 208.25461457 427.61435512 205.63671875 430.54296875 C181.6890027 457.44309404 164.72038263 486.90881924 166.85546875 523.9296875 C168.21561705 540.91265033 173.58677357 556.15802937 181.85546875 570.9296875 C182.41105469 571.92742187 182.96664063 572.92515625 183.5390625 573.953125 C198.37375696 598.78434018 223.64685669 615.31078019 251.24658203 622.4206543 C274.30029245 628.07991619 299.25372223 625.73820356 320.85546875 615.9296875 C322.32306641 615.28580078 322.32306641 615.28580078 323.8203125 614.62890625 C350.03344844 602.40070223 369.04713138 579.88352258 379.35546875 553.14453125 C389.56588838 524.24539713 387.81414606 494.32449272 374.88671875 466.578125 C368.24120743 453.07357345 359.19590498 441.22665268 348.95703125 430.24609375 C346.85581035 427.93006402 344.95948483 425.52477894 343.04296875 423.0546875 C332.58725306 410.14639652 320.19011497 397.85603795 306.85546875 387.9296875 C306.16453125 387.36378906 305.47359375 386.79789062 304.76171875 386.21484375 C302.8240541 384.65018457 302.8240541 384.65018457 299.85546875 384.9296875 Z M271.85546875 420.9296875 C265.90940621 427.02912071 260.48177379 433.55483055 255.13671875 440.1796875 C252.78827907 443.01068328 250.34636973 445.72352348 247.85546875 448.4296875 C228.07920785 469.97878167 210.65528488 492.41646004 211.72802734 522.83496094 C212.69641866 538.75219754 221.92057815 553.35825008 233.16015625 564.140625 C248.15767326 576.97456579 265.01208505 581.12546724 284.35693359 580.14111328 C300.22610719 578.79826549 314.95926111 569.92017273 325.3359375 558.10546875 C337.2978309 542.7774144 342.99655688 526.32911688 340.85546875 506.9296875 C336.84880442 484.1887372 321.67291768 466.19061907 305.74243164 450.48046875 C303.91433341 448.67609934 302.10007455 446.85862383 300.28710938 445.0390625 C293.44926675 438.21842804 286.4484373 431.90932409 278.85546875 425.9296875 C277.64345202 424.91323013 276.43444074 423.89316098 275.23046875 422.8671875 C273.23716624 420.82433305 273.23716624 420.82433305 271.85546875 420.9296875 Z " fill="#465F18" transform="translate(353.14453125,116.0703125)"/>
<path d="M0 0 C6.57024933 5.08751428 13.31315671 9.95031198 20.01269531 14.86523438 C24.00741237 17.79774496 27.99563588 20.73905411 31.984375 23.6796875 C33.56767559 24.84639861 35.15100896 26.01306522 36.734375 27.1796875 C39.90104167 29.51302083 43.06770833 31.84635417 46.234375 34.1796875 C47.0183667 34.75734863 47.8023584 35.33500977 48.61010742 35.93017578 C50.19106483 37.09512599 51.77195692 38.26016484 53.3527832 39.42529297 C57.34693328 42.3689573 61.3422593 45.31100096 65.33984375 48.25 C72.74457341 53.69605924 80.13840884 59.15454001 87.484375 64.6796875 C93.52974895 69.22372176 99.59223165 73.74408871 105.671875 78.2421875 C106.47431641 78.83837891 107.27675781 79.43457031 108.10351562 80.04882812 C111.80468088 82.78146416 115.46820076 85.41807435 119.484375 87.6796875 C126.51098481 82.75678914 133.46070551 77.77732718 140.171875 72.4296875 C147.96404029 66.23049363 155.98882002 60.36057489 164.02441406 54.48242188 C166.45012407 52.70478762 168.87057674 50.92026012 171.2890625 49.1328125 C178.21645942 44.01342712 185.15088691 38.9076878 192.15112305 33.88818359 C200.53336598 27.87743427 208.76093148 21.68854347 216.9465332 15.4128418 C222.28548729 11.3283718 227.6675862 7.33420364 233.17333984 3.47802734 C236.5831722 1.07725759 239.91725943 -1.40219537 243.22265625 -3.9453125 C267.07488717 -22.26904746 288.69483069 -33.68570011 319.484375 -31.3203125 C335.72704785 -29.10739046 350.06575158 -21.8786563 362.484375 -11.3203125 C363.30035156 -10.69382813 364.11632812 -10.06734375 364.95703125 -9.421875 C379.23607336 2.45157887 388.9085286 22.55688132 391.484375 40.6796875 C394.00436775 74.6356163 382.75652354 96.03541718 361.77734375 121.63671875 C358.79769171 125.28062994 355.8792133 128.96823365 352.984375 132.6796875 C348.50271155 138.42005182 343.92480278 144.07662811 339.3203125 149.71875 C335.82907417 154.00420368 332.38618612 158.32298203 328.984375 162.6796875 C325.04242424 167.72815075 321.03405787 172.71724919 316.984375 177.6796875 C310.00931686 186.2289559 303.06427386 194.82047727 296.484375 203.6796875 C299.06704913 205.13919869 301.65048241 206.59733631 304.234375 208.0546875 C304.96398437 208.4671875 305.69359375 208.8796875 306.4453125 209.3046875 C307.15429688 209.70429688 307.86328125 210.10390625 308.59375 210.515625 C309.24311523 210.88220215 309.89248047 211.2487793 310.56152344 211.62646484 C312.51274691 212.69522793 314.48848056 213.69727253 316.484375 214.6796875 C314.73914562 218.73182929 312.0615593 221.98572711 309.359375 225.4296875 C308.89144531 226.03167969 308.42351563 226.63367188 307.94140625 227.25390625 C306.79212493 228.73155366 305.63866265 230.20594755 304.484375 231.6796875 C299.29208645 231.10739117 295.1740047 228.5814714 290.671875 226.1171875 C289.88361328 225.69244141 289.09535156 225.26769531 288.28320312 224.83007812 C286.3470372 223.78572196 284.41432133 222.7354798 282.484375 221.6796875 C277.79649167 226.80960449 273.39741882 231.93240439 269.484375 237.6796875 C262.30221067 235.40533546 255.4085548 232.64384569 248.484375 229.6796875 C248.83628906 229.21820313 249.18820312 228.75671875 249.55078125 228.28125 C253.66781859 222.84203095 257.60046252 217.28722978 261.484375 211.6796875 C260.22625 211.3290625 258.968125 210.9784375 257.671875 210.6171875 C254.28002118 209.61184579 250.96826288 208.50189173 247.6796875 207.203125 C224.54880306 198.11446836 199.93590443 192.81614858 175.484375 188.6796875 C173.92130615 188.41454346 173.92130615 188.41454346 172.32666016 188.14404297 C120.45324215 179.7310837 64.43382869 184.03422493 14.15209961 199.15600586 C6.53772038 201.40523492 6.53772038 201.40523492 3.484375 200.6796875 C1.24761217 198.6418957 -0.48446198 196.30368409 -2.265625 193.8671875 C-2.75933594 193.22458984 -3.25304687 192.58199219 -3.76171875 191.91992188 C-5.86467622 189.13998494 -7.40239044 187.01939117 -8.515625 183.6796875 C28.61366158 170.45941122 68.10155742 163.60816257 107.484375 162.6796875 C108.34321289 162.65777344 109.20205078 162.63585937 110.08691406 162.61328125 C164.51010338 161.42629784 221.30869714 170.87880512 271.27978516 193.03637695 C273.86031297 193.78938811 275.01994629 193.722465 277.484375 192.6796875 C279.02256862 191.3308563 279.02256862 191.3308563 280.33203125 189.57421875 C281.10764404 188.60427979 281.10764404 188.60427979 281.89892578 187.61474609 C282.44274902 186.91430176 282.98657227 186.21385742 283.546875 185.4921875 C284.11905762 184.77111816 284.69124023 184.05004883 285.28076172 183.30712891 C287.0246477 181.10516481 288.75518018 178.89319725 290.484375 176.6796875 C291.45361631 175.45118281 292.42361513 174.22327522 293.39453125 172.99609375 C296.1030983 169.5665933 298.79540377 166.1245628 301.484375 162.6796875 C307.79180745 154.59915545 314.1668047 146.5832261 320.64794922 138.64111328 C324.59768253 133.79312851 328.47633617 128.89469951 332.32250977 123.96435547 C335.25924807 120.21011993 338.24925331 116.50456134 341.27148438 112.81884766 C364.24535819 85.00262005 364.24535819 85.00262005 370.8671875 50.25 C368.88729167 31.78444094 361.10872885 15.22896166 346.58984375 3.265625 C333.64395137 -6.48582641 317.7481986 -11.66901982 301.484375 -10.3203125 C284.59473824 -7.68353377 271.6005337 0.54585092 258.43554688 11.12939453 C254.35290382 14.3732363 250.19441506 17.51956958 246.046875 20.6796875 C245.13204346 21.37779541 244.21721191 22.07590332 243.2746582 22.79516602 C237.87135809 26.9053935 232.41706536 30.91679936 226.86254883 34.8190918 C221.55068431 38.57633979 216.3968007 42.53316666 211.234375 46.4921875 C203.88589026 52.12609177 196.46676612 57.63562374 188.94018555 63.02880859 C184.09850159 66.50182815 179.30510864 70.03073998 174.546875 73.6171875 C166.39548109 79.76117887 158.18003118 85.81594451 149.95605469 91.86230469 C145.73484543 94.96608597 141.51573493 98.07271402 137.296875 101.1796875 C136.53141357 101.74284668 135.76595215 102.30600586 134.97729492 102.88623047 C133.87671753 103.69664795 133.87671753 103.69664795 132.75390625 104.5234375 C132.04314941 105.04035156 131.33239258 105.55726563 130.60009766 106.08984375 C129.14652988 107.18211624 127.72512342 108.3181138 126.33349609 109.48828125 C124.43233296 111.05724114 122.63896028 112.48217054 120.484375 113.6796875 C117.84765625 113.296875 117.84765625 113.296875 115.484375 111.6796875 C114.57042969 111.10476563 113.65648437 110.52984375 112.71484375 109.9375 C105.29253795 104.73521635 98.01022331 99.37241596 90.77734375 93.91015625 C86.26721147 90.5075201 81.72282397 87.15245314 77.171875 83.8046875 C76.37700684 83.21985596 75.58213867 82.63502441 74.76318359 82.0324707 C73.14482916 80.8421014 71.52633909 79.65191647 69.90771484 78.46191406 C65.93114982 75.53738004 61.95791229 72.60833317 57.984375 69.6796875 C56.40105804 68.51299862 54.81772469 67.34633197 53.234375 66.1796875 C43.734375 59.1796875 34.234375 52.1796875 24.734375 45.1796875 C23.95078613 44.60234863 23.16719727 44.02500977 22.35986328 43.43017578 C20.77473872 42.26210352 19.18977806 41.09380882 17.60498047 39.92529297 C13.67535869 37.02829609 9.74307148 34.1350761 5.8046875 31.25 C4.23937644 30.1018445 2.67427271 28.95340631 1.109375 27.8046875 C0.33513184 27.23669434 -0.43911133 26.66870117 -1.23681641 26.08349609 C-6.43130987 22.25738124 -11.55661639 18.34962443 -16.66308594 14.40698242 C-33.93201256 1.09667745 -51.60882598 -12.24172159 -74.515625 -10.3203125 C-92.04267571 -7.73269717 -108.23902925 -0.41029206 -119.515625 13.6796875 C-130.26107949 29.98517532 -135.44900579 47.29194015 -131.8671875 66.8046875 C-128.01378577 82.61351511 -119.54553591 93.52893793 -109.24072266 105.62792969 C-106.73535119 108.60771199 -104.33888569 111.66639277 -101.953125 114.7421875 C-98.03519375 119.77260883 -94.04763878 124.74024908 -90.015625 129.6796875 C-85.50795286 135.20302407 -81.06719733 140.77153347 -76.6796875 146.390625 C-73.17786253 150.86405458 -69.60751336 155.27835952 -66.015625 159.6796875 C-61.50802527 165.20308435 -57.06719858 170.77153186 -52.6796875 176.390625 C-49.17786253 180.86405458 -45.60751336 185.27835952 -42.015625 189.6796875 C-37.50802527 195.20308435 -33.06719858 200.77153186 -28.6796875 206.390625 C-25.17786253 210.86405458 -21.60751336 215.27835952 -18.015625 219.6796875 C-13.50802527 225.20308435 -9.06719858 230.77153186 -4.6796875 236.390625 C-1.17786253 240.86405458 2.39248664 245.27835952 5.984375 249.6796875 C10.49197473 255.20308435 14.93280142 260.77153186 19.3203125 266.390625 C22.82213747 270.86405458 26.39248664 275.27835952 29.984375 279.6796875 C34.4929747 285.20430967 38.93651978 290.77269411 43.32250977 296.39501953 C46.25874732 300.14861493 49.24815169 303.85361191 52.27001953 307.53857422 C87.45089089 350.47733208 107.02662052 395.9531894 102.16796875 452.35253906 C100.66296241 464.82728824 97.79826011 476.8892449 93.484375 488.6796875 C92.84048828 490.48179687 92.84048828 490.48179687 92.18359375 492.3203125 C80.88357081 522.24149999 61.67937449 548.01529765 36.484375 567.6796875 C35.49050781 568.4634375 34.49664062 569.2471875 33.47265625 570.0546875 C4.37153131 592.28054282 -31.55597474 603.15856124 -67.890625 603.0546875 C-68.67731567 603.053479 -69.46400635 603.05227051 -70.27453613 603.05102539 C-114.03197444 602.86957862 -154.69433808 586.91895021 -186.515625 556.6796875 C-187.34900391 555.90310791 -187.34900391 555.90310791 -188.19921875 555.11083984 C-218.69723991 526.55583777 -239.03000227 485.49840591 -240.6418457 443.3815918 C-240.72252329 439.54313145 -240.76221677 435.70635883 -240.765625 431.8671875 C-240.76629974 431.18160767 -240.76697449 430.49602783 -240.76766968 429.78967285 C-240.74962238 418.19824643 -239.98487869 407.02707479 -237.515625 395.6796875 C-237.34933594 394.89770996 -237.18304688 394.11573242 -237.01171875 393.31005859 C-229.536001 359.28862085 -210.57119292 331.18298577 -187.515625 305.6796875 C-187.01901367 305.12667969 -186.52240234 304.57367188 -186.01074219 304.00390625 C-180.93851087 298.36285801 -175.75630063 292.86348858 -170.34765625 287.54296875 C-168.46645935 285.6296832 -166.70520175 283.64897496 -164.953125 281.6171875 C-158.18461898 273.77751883 -158.18461898 273.77751883 -154.515625 270.6796875 C-153.855625 270.6796875 -153.195625 270.6796875 -152.515625 270.6796875 C-150.54788872 272.88969761 -148.70975662 275.10267649 -146.890625 277.4296875 C-146.1171875 278.38101563 -146.1171875 278.38101563 -145.328125 279.3515625 C-144.84085937 279.9703125 -144.35359375 280.5890625 -143.8515625 281.2265625 C-143.40345215 281.79213867 -142.9553418 282.35771484 -142.49365234 282.94042969 C-141.515625 284.6796875 -141.515625 284.6796875 -141.515625 288.6796875 C-143.30053711 290.88696289 -143.30053711 290.88696289 -145.79296875 293.27734375 C-147.15325195 294.60475586 -147.15325195 294.60475586 -148.54101562 295.95898438 C-149.51095812 296.88751396 -150.48166452 297.8152462 -151.453125 298.7421875 C-158.68579328 305.70306449 -165.27788896 312.81491468 -171.515625 320.6796875 C-172.5872157 321.96272146 -173.66347382 323.24188372 -174.74609375 324.515625 C-203.21497618 358.39770459 -222.76800979 397.74305606 -219.20703125 442.9765625 C-215.51160549 483.35756767 -196.82467442 519.77029635 -166.22265625 546.46875 C-134.55692859 572.33137894 -95.67353597 584.56399919 -54.84130859 581.47753906 C-29.01465765 578.83861001 -3.58583909 569.94408064 17.484375 554.6796875 C18.05317383 554.27024902 18.62197266 553.86081055 19.20800781 553.43896484 C52.27734178 529.31401062 73.73190433 493.68146168 80.23046875 453.27734375 C86.17210084 411.80503767 73.68831195 371.75127687 48.984375 338.4296875 C47.49379955 336.50568231 45.99349275 334.58918343 44.484375 332.6796875 C43.63461074 331.58656353 42.78568493 330.49278737 41.9375 329.3984375 C36.49519628 322.40062153 30.92578554 315.50982479 25.32128906 308.64160156 C21.82952635 304.35597451 18.38663899 300.03662403 14.984375 295.6796875 C8.92523955 287.92531853 2.7070462 280.30300685 -3.515625 272.6796875 C-10.19659511 264.49491169 -16.8493226 256.2956502 -23.35205078 247.96826172 C-26.85356472 243.49487835 -30.42388192 239.08083747 -34.015625 234.6796875 C-38.52322473 229.15629065 -42.96405142 223.58784314 -47.3515625 217.96875 C-50.85338747 213.49532042 -54.42373664 209.08101548 -58.015625 204.6796875 C-62.52322473 199.15629065 -66.96405142 193.58784314 -71.3515625 187.96875 C-74.85338747 183.49532042 -78.42373664 179.08101548 -82.015625 174.6796875 C-86.52322473 169.15629065 -90.96405142 163.58784314 -95.3515625 157.96875 C-98.85338747 153.49532042 -102.42373664 149.08101548 -106.015625 144.6796875 C-110.5225907 139.15706756 -114.9691873 133.59414211 -119.34716797 127.96875 C-121.77861527 124.85480662 -124.24734013 121.78003096 -126.7734375 118.7421875 C-144.51552358 97.38831041 -156.76356052 75.37208667 -154.515625 46.6796875 C-152.05007957 23.12573846 -141.51914158 2.79995201 -123.609375 -12.87109375 C-81.60834713 -46.12190748 -37.75855165 -29.39907131 0 0 Z " fill="#80A452" transform="translate(324.515625,200.3203125)"/>
<path d="M0 0 C3.50372961 2.6785538 7.06680919 5.25924758 10.66796875 7.8046875 C18.65788223 13.46731909 26.52535197 19.29376404 34.39990234 25.11523438 C38.38196084 28.05763433 42.36889757 30.99340628 46.35546875 33.9296875 C47.93362244 35.09240897 49.51174739 36.25516946 51.08984375 37.41796875 C51.87294922 37.99498535 52.65605469 38.57200195 53.46289062 39.16650391 C55.89084442 40.95575721 58.31850198 42.7454118 60.74609375 44.53515625 C70.4390453 51.68059509 80.14055694 58.81413176 89.85546875 65.9296875 C94.88839515 63.2088415 99.21300341 60.20375658 103.60546875 56.5546875 C109.32612849 51.89346272 115.15319037 47.41614971 121.10546875 43.0546875 C121.90299561 42.47025879 122.70052246 41.88583008 123.5222168 41.28369141 C125.96512043 39.49694058 128.4100813 37.71303699 130.85546875 35.9296875 C140.28258909 29.04615061 149.66664431 22.12959325 158.85546875 14.9296875 C201.71327992 -18.58954808 244.19863305 -39.79544541 300.09814453 -33.12255859 C334.21946655 -28.4404264 366.23672496 -14.04934425 391.85546875 8.9296875 C392.73847656 9.69152344 393.62148438 10.45335937 394.53125 11.23828125 C427.25936423 39.79267018 446.53395861 81.91434546 449.85546875 124.9296875 C452.49556131 172.84928049 437.06248504 216.4740953 406.43408203 253.02441406 C404.013674 255.94567362 401.6839473 258.93501603 399.35546875 261.9296875 C394.87478311 267.67079631 390.29587677 273.32665233 385.69140625 278.96875 C382.20016792 283.25420368 378.75727987 287.57298203 375.35546875 291.9296875 C370.87861389 297.66320337 366.30727442 303.31434843 361.70678711 308.94897461 C357.59167052 313.9984799 353.55964697 319.10808301 349.55151367 324.24267578 C346.42395068 328.23767396 343.20888538 332.12310647 339.85546875 335.9296875 C334.02449923 332.82810797 328.98944976 329.07412569 323.85546875 324.9296875 C324.45069038 321.78683134 325.39570172 319.93723051 327.4453125 317.49609375 C328.24291992 316.53316406 328.24291992 316.53316406 329.05664062 315.55078125 C329.62962891 314.87144531 330.20261719 314.19210937 330.79296875 313.4921875 C331.99097452 312.04672481 333.18757494 310.60009628 334.3828125 309.15234375 C334.97562012 308.43578613 335.56842773 307.71922852 336.17919922 306.98095703 C338.4703432 304.17725885 340.66506194 301.31294128 342.85546875 298.4296875 C347.11754774 292.84132136 351.52186174 287.38340237 355.96875 281.94140625 C359.47883073 277.64032142 362.9396395 273.30592564 366.35546875 268.9296875 C370.29732787 263.88113937 374.30619839 258.89246564 378.35546875 253.9296875 C384.27558085 246.66231171 390.15291984 239.36956442 395.85546875 231.9296875 C396.27924805 231.3816748 396.70302734 230.83366211 397.13964844 230.26904297 C417.59283016 203.61387801 428.34955309 171.80942064 428.16796875 138.2421875 C428.16614594 137.54036346 428.16432312 136.83853943 428.16244507 136.115448 C428.11459992 125.15142912 427.53234241 114.59766137 424.85546875 103.9296875 C424.68917969 103.23987793 424.52289062 102.55006836 424.3515625 101.83935547 C417.71178861 74.99130678 403.68818565 51.94161687 384.85546875 31.9296875 C384.26894531 31.27871094 383.68242188 30.62773437 383.078125 29.95703125 C358.6488914 3.92412805 320.39757773 -11.17653696 285.09375 -12.35546875 C243.86320549 -13.14070562 214.69520941 -0.53617697 182.72460938 24.57666016 C175.02560904 30.61901833 167.14697623 36.4046492 159.24658203 42.1796875 C155.27535067 45.08613904 151.31600807 48.00869297 147.35546875 50.9296875 C145.7721927 52.0964319 144.18885935 53.26309856 142.60546875 54.4296875 C141.82171875 55.0071875 141.03796875 55.5846875 140.23046875 56.1796875 C133.10546876 61.4296875 133.10546876 61.4296875 130.7277832 63.18164062 C129.15336893 64.34175241 127.57898712 65.50190826 126.00463867 66.66210938 C121.91011656 69.67943828 117.81493814 72.69587062 113.71875 75.7109375 C112.873125 76.33355469 112.0275 76.95617187 111.15625 77.59765625 C109.55359717 78.77763141 107.95074792 79.95733986 106.34765625 81.13671875 C105.61417969 81.67683594 104.88070313 82.21695313 104.125 82.7734375 C103.05886475 83.55074219 103.05886475 83.55074219 101.97119141 84.34375 C100.52280289 85.42945641 99.10121007 86.55158705 97.70458984 87.703125 C92.55232289 91.88760942 92.55232289 91.88760942 89.203125 92.08984375 C86.12543295 90.56892105 83.85723552 88.65235041 81.29296875 86.3671875 C77.38156236 82.9691683 73.46436092 79.87934477 69.10546875 77.0546875 C64.32924461 73.95944614 59.76323075 70.67759056 55.23046875 67.2421875 C49.55155329 62.94028822 43.82852717 58.71217125 38.04296875 54.5546875 C29.39708282 48.33687704 20.81978691 42.02957995 12.25537109 35.70019531 C9.85048104 33.92600786 7.44153039 32.15748101 5.03125 30.390625 C3.43095762 29.21618938 1.83069707 28.0417104 0.23046875 26.8671875 C-0.55545654 26.29154053 -1.34138184 25.71589355 -2.15112305 25.12280273 C-6.01037063 22.28454546 -9.83066879 19.41123782 -13.58984375 16.44140625 C-32.24508094 1.71690636 -52.49663504 -7.49563051 -76.14453125 -11.0703125 C-77.33949219 -11.25335938 -78.53445313 -11.43640625 -79.765625 -11.625 C-96.38403026 -13.61825378 -113.8321113 -12.74349926 -130.14453125 -9.0703125 C-130.88960937 -8.90402344 -131.6346875 -8.73773438 -132.40234375 -8.56640625 C-158.97115115 -2.40353855 -182.40900539 11.24589813 -202.14453125 29.9296875 C-203.02882813 30.74953125 -203.913125 31.569375 -204.82421875 32.4140625 C-232.75932744 59.16212691 -246.35468251 96.47509934 -248.33203125 134.5390625 C-249.10176287 176.29700306 -232.34511387 211.27149182 -206.43359375 242.890625 C-203.47339415 246.51055568 -200.57935866 250.17738836 -197.70703125 253.8671875 C-193.6054629 259.12748475 -189.39862651 264.29210247 -185.14453125 269.4296875 C-179.01641539 276.83324861 -173.04793184 284.34647526 -167.14453125 291.9296875 C-160.83996876 300.01240055 -154.4620413 308.02622273 -147.98095703 315.96826172 C-144.03222632 320.81501588 -140.15598045 325.7132701 -136.30859375 330.640625 C-132.26534063 335.80570557 -128.12605878 340.88967993 -123.97827148 345.97094727 C-120.50559643 350.23279659 -117.08626819 354.53099851 -113.70703125 358.8671875 C-109.60515202 364.1272444 -105.39875087 369.29219113 -101.14453125 374.4296875 C-96.43155693 380.1211869 -91.80000281 385.86293196 -87.2578125 391.69140625 C-83.23633652 396.84171759 -79.11431042 401.90668069 -74.98022461 406.96679688 C-71.47597804 411.26470261 -68.04264516 415.61014765 -64.64453125 419.9921875 C-60.84123344 424.88798087 -56.86704806 429.59068837 -52.76953125 434.2421875 C-29.86640618 460.35093162 -9.90618592 488.63479764 -12.14453125 524.9296875 C-14.52264354 547.1254022 -25.79630801 567.69806226 -42.77734375 582.09375 C-62.3292487 597.25776869 -84.8004463 603.35661148 -109.27539062 600.69824219 C-131.20952608 597.68203211 -151.74975018 586.16742166 -165.45703125 568.7421875 C-175.55077841 555.24878212 -182.44592521 538.8999925 -183.14453125 521.9296875 C-183.19609375 520.98222656 -183.24765625 520.03476562 -183.30078125 519.05859375 C-184.2259322 487.56491362 -167.55607513 459.87182055 -146.67163086 437.60961914 C-141.26737468 431.94687141 -135.72353692 426.41966649 -130.14453125 420.9296875 C-126.15680458 422.48810942 -124.0337493 425.04865896 -121.33203125 428.3046875 C-120.11580078 429.73941406 -120.11580078 429.73941406 -118.875 431.203125 C-117.14453125 433.9296875 -117.14453125 433.9296875 -117.36303711 435.91503906 C-118.2406042 438.17735823 -119.15096734 439.24391111 -120.91796875 440.890625 C-121.4900708 441.4371875 -122.06217285 441.98375 -122.65161133 442.546875 C-123.2680249 443.12695312 -123.88443848 443.70703125 -124.51953125 444.3046875 C-144.06720783 463.3059772 -161.16011236 487.63714472 -161.58203125 515.8046875 C-161.42480659 534.04274845 -154.35633859 549.44496872 -141.7734375 562.52734375 C-127.62343795 575.45787826 -110.39400142 579.69028453 -91.76953125 579.296875 C-75.7776292 578.53715189 -60.73942123 570.82047667 -49.87890625 559.078125 C-37.35433335 543.56345137 -32.61182111 526.52618794 -34.14453125 506.9296875 C-37.58878153 484.5305028 -54.63926922 466.55920527 -68.47509766 449.67456055 C-71.8206008 445.58826018 -75.07806964 441.44960729 -78.26953125 437.2421875 C-82.09329453 432.22660189 -86.07783758 427.39044102 -90.17578125 422.59741211 C-93.6035544 418.58596807 -96.92370687 414.50124187 -100.203125 410.3671875 C-102.22507824 407.82855808 -104.27425394 405.3143542 -106.33203125 402.8046875 C-114.63248441 392.67556308 -122.91980939 382.54151139 -130.97998047 372.21948242 C-134.48184965 367.74571491 -138.05245821 363.33124179 -141.64453125 358.9296875 C-146.15213098 353.40629065 -150.59295767 347.83784314 -154.98046875 342.21875 C-158.48229372 337.74532042 -162.05264289 333.33101548 -165.64453125 328.9296875 C-170.15213098 323.40629065 -174.59295767 317.83784314 -178.98046875 312.21875 C-182.48229372 307.74532042 -186.05264289 303.33101548 -189.64453125 298.9296875 C-194.15213098 293.40629065 -198.59295767 287.83784314 -202.98046875 282.21875 C-206.48229684 277.74531642 -210.05281565 273.33116021 -213.64453125 268.9296875 C-219.12334862 262.21129678 -224.51940472 255.43531929 -229.84033203 248.59130859 C-231.12257328 246.95766315 -232.42541808 245.34275079 -233.734375 243.73046875 C-240.23137139 235.64871774 -245.39248653 227.1379886 -250.14453125 217.9296875 C-250.49789551 217.24890137 -250.85125977 216.56811523 -251.21533203 215.86669922 C-272.16563723 174.96188089 -274.84697325 126.80801255 -260.92529297 83.29541016 C-246.37662444 39.21267155 -214.26291233 3.7759224 -173.08984375 -17.1640625 C-115.70307005 -45.35606715 -50.13976702 -38.36020068 0 0 Z " fill="#263706" transform="translate(353.14453125,116.0703125)"/>
<path d="M0 0 C4.43170173 1.51896368 8.03024076 3.92639809 11.8125 6.625 C12.40998047 7.04523438 13.00746094 7.46546875 13.62304688 7.8984375 C15.08520565 8.92779728 16.54304899 9.9632823 18 11 C16.70944264 13.74967731 15.28915704 16.07873302 13.3984375 18.453125 C12.90859375 19.071875 12.41875 19.690625 11.9140625 20.328125 C11.40617188 20.96234375 10.89828125 21.5965625 10.375 22.25 C9.859375 22.8996875 9.34375 23.549375 8.8125 24.21875 C7.54485821 25.81503967 6.27285639 27.40786526 5 29 C6.16312671 30.19096751 7.33076672 31.37752704 8.5 32.5625 C9.1496875 33.22378906 9.799375 33.88507813 10.46875 34.56640625 C12.42971208 36.45171393 14.40715762 38.2165443 16.47265625 39.98046875 C21.96096402 44.75093706 27.07837921 49.89234346 32.2175293 55.03222656 C33.92543056 56.73794598 35.64118045 58.43549027 37.35742188 60.1328125 C44.03851541 66.77986256 50.15378649 73.59824797 56 81 C57.01071463 82.20984829 58.02573199 83.416128 59.046875 84.6171875 C70.61506288 98.44926181 80.93030217 113.93762468 87 131 C87.22091309 131.61085449 87.44182617 132.22170898 87.66943359 132.85107422 C98.35904048 162.86566439 98.55409208 197.8921806 85.14453125 227.1953125 C83.22199441 231.19981147 81.13627508 235.10634821 79 239 C78.13181641 240.62421875 78.13181641 240.62421875 77.24609375 242.28125 C67.40653107 259.99702875 52.18536388 275.36764103 35 286 C33.59234375 286.91652344 33.59234375 286.91652344 32.15625 287.8515625 C5.2449215 304.6341767 -29.96556458 309.51733526 -60.80859375 303.03515625 C-94.51595 295.05788063 -124.20480784 274.89380484 -142.78930664 245.5078125 C-160.81262635 215.83095838 -166.79563881 180.96204056 -159 147 C-152.97014268 123.44036011 -141.56515023 104.23974744 -125.20703125 86.44921875 C-122.13425548 83.03925343 -119.26471069 79.47851618 -116.37890625 75.91015625 C-114.2694305 73.32959889 -112.12443381 70.78804267 -109.95776367 68.25585938 C-104.05363841 61.35479958 -98.46951418 54.24918257 -93 47 C-93.83789062 46.73445313 -94.67578125 46.46890625 -95.5390625 46.1953125 C-99.2299478 44.92058236 -102.79895162 43.43532174 -106.375 41.875 C-107.01566406 41.59785156 -107.65632812 41.32070313 -108.31640625 41.03515625 C-109.87856925 40.35899615 -111.43942315 39.67981293 -113 39 C-113 33.73095045 -111.05529494 31.726369 -107.9375 27.6875 C-107.47150391 27.02943359 -107.00550781 26.37136719 -106.52539062 25.69335938 C-105.1172625 23.85991908 -103.85392273 22.38256703 -102 21 C-96.67507842 20.79917439 -92.38183045 22.94778823 -87.75 25.375 C-86.73486328 25.89368652 -86.73486328 25.89368652 -85.69921875 26.42285156 C-79.22674519 29.7794928 -72.92118643 33.42967984 -66.64746094 37.14208984 C-62.42428568 39.63661258 -58.1729582 41.93721183 -53.76806641 44.09326172 C-51.44503184 45.28461084 -49.32372106 46.69022074 -47.1875 48.1875 C-44.69355181 49.9310567 -42.91370845 51.02876385 -40 52 C-39.66935547 51.22462891 -39.66935547 51.22462891 -39.33203125 50.43359375 C-37.4663251 47.02498692 -35.09839373 44.10093048 -32.6875 41.0625 C-32.21376953 40.45470703 -31.74003906 39.84691406 -31.25195312 39.22070312 C-28.3694141 35.56528087 -25.31725554 32.27465835 -22 29 C-20.43297679 27.18829211 -18.89099415 25.35461828 -17.375 23.5 C-16.61960937 22.5821875 -15.86421875 21.664375 -15.0859375 20.71875 C-13.00761294 18.11711742 -13.00761294 18.11711742 -11.55078125 15.58203125 C-9.54813295 12.24764705 -7.20495044 9.24888095 -4.8125 6.1875 C-4.34908203 5.59001953 -3.88566406 4.99253906 -3.40820312 4.37695312 C-2.27456544 2.91607981 -1.13761932 1.45777485 0 0 Z M-10 46 C-11.94378931 48.1663606 -13.69472654 50.30596811 -15.4375 52.625 C-16.15389648 53.55119141 -16.15389648 53.55119141 -16.88476562 54.49609375 C-19.75233076 58.23297562 -22.43107278 62.0524759 -25 66 C-24.32195312 66.54527344 -23.64390625 67.09054687 -22.9453125 67.65234375 C-6.72998538 80.79080132 9.34404658 95.13758671 22.16796875 111.6796875 C24.00102463 114.00129772 25.96336793 116.10659304 28 118.25 C36.35917587 127.59358979 42.28635786 139.08721854 46 151 C46.31839844 151.99257813 46.63679687 152.98515625 46.96484375 154.0078125 C53.04977564 176.83331738 49.58234457 200.8565802 38.06884766 221.19726562 C26.88157268 240.06589021 9.01552445 252.88701495 -12 258.875 C-34.16906137 264.48832003 -57.12901015 260.71010892 -77.0625 249.875 C-83.86023969 245.74427311 -89.39121784 240.5848471 -95 235 C-95.73089844 234.30390625 -96.46179688 233.6078125 -97.21484375 232.890625 C-111.3019155 218.49670614 -117.69474605 196.93754987 -118.3125 177.25 C-117.69641757 148.14010502 -101.66233876 124.18923552 -82.35546875 103.5625 C-79.22346276 100.1552099 -76.33955131 96.57272845 -73.43359375 92.97265625 C-70.07854698 88.874437 -66.62353533 84.86534021 -63.16064453 80.8581543 C-61.76790534 79.24368433 -60.38356828 77.62232792 -59 76 C-58.22269531 75.10023438 -57.44539062 74.20046875 -56.64453125 73.2734375 C-54.70694983 71.06252857 -54.70694983 71.06252857 -55 68 C-57.49002633 65.88031027 -60.42072925 64.37855584 -63.25 62.75 C-64.02730469 62.27820313 -64.80460938 61.80640625 -65.60546875 61.3203125 C-66.35957031 60.87945313 -67.11367188 60.43859375 -67.890625 59.984375 C-68.58188477 59.57928711 -69.27314453 59.17419922 -69.98535156 58.75683594 C-72.48771655 57.81678123 -73.55123868 57.97345184 -76 59 C-77.51569273 60.25249808 -77.51569273 60.25249808 -78.8125 61.88671875 C-79.32425781 62.48806641 -79.83601562 63.08941406 -80.36328125 63.70898438 C-80.90339844 64.36189453 -81.44351563 65.01480469 -82 65.6875 C-82.57105469 66.36232422 -83.14210938 67.03714844 -83.73046875 67.73242188 C-84.91630229 69.13421848 -86.09856483 70.53904329 -87.27734375 71.94677734 C-89.34609681 74.41251051 -91.43893082 76.8566675 -93.53710938 79.29736328 C-94.51973241 80.44102367 -95.50017251 81.58656294 -96.47851562 82.73388672 C-99.02811401 85.72206281 -101.60085418 88.68466762 -104.21875 91.61328125 C-128.16646605 118.51340654 -145.13508612 147.97913174 -143 185 C-141.6398517 201.98296283 -136.26869518 217.22834187 -128 232 C-127.44441406 232.99773437 -126.88882813 233.99546875 -126.31640625 235.0234375 C-111.48171179 259.85465268 -86.20861206 276.38109269 -58.60888672 283.4909668 C-35.5551763 289.15022869 -10.60174652 286.80851606 11 277 C12.46759766 276.35611328 12.46759766 276.35611328 13.96484375 275.69921875 C40.17797969 263.47101473 59.19166263 240.95383508 69.5 214.21484375 C79.71041963 185.31570963 77.95867731 155.39480522 65.03125 127.6484375 C58.38573868 114.14388595 49.34043623 102.29696518 39.1015625 91.31640625 C37.0003416 89.00037652 35.10401608 86.59509144 33.1875 84.125 C22.73178431 71.21670902 10.33464622 58.92635045 -3 49 C-3.6909375 48.43410156 -4.381875 47.86820312 -5.09375 47.28515625 C-7.03141465 45.72049707 -7.03141465 45.72049707 -10 46 Z M-38 82 C-43.94606254 88.09943321 -49.37369496 94.62514305 -54.71875 101.25 C-57.06718968 104.08099578 -59.50909902 106.79383598 -62 109.5 C-81.7762609 131.04909417 -99.20018387 153.48677254 -98.12744141 183.90527344 C-97.15905009 199.82251004 -87.9348906 214.42856258 -76.6953125 225.2109375 C-61.69779549 238.04487829 -44.8433837 242.19577974 -25.49853516 241.21142578 C-9.62936156 239.86857799 5.10379236 230.99048523 15.48046875 219.17578125 C27.44236215 203.8477269 33.14108813 187.39942938 31 168 C26.99333567 145.2590497 11.81744893 127.26093157 -4.11303711 111.55078125 C-5.94113534 109.74641184 -7.7553942 107.92893633 -9.56835938 106.109375 C-16.406202 99.28874054 -23.40703145 92.97963659 -31 87 C-32.21201673 85.98354263 -33.42102801 84.96347348 -34.625 83.9375 C-36.61830251 81.89464555 -36.61830251 81.89464555 -38 82 Z " fill="#465E18" transform="translate(663,455)"/>
<path d="M0 0 C8.72515954 1.47146396 16.48597786 9.23954864 22.7734375 15.046875 C27.27561056 18.99614961 32.26059886 22.44145007 37.46484375 25.40234375 C40.4004335 27.25235332 42.77474995 29.38486102 45.3125 31.75 C48.45804241 34.66098798 51.60499772 37.54237068 54.875 40.3125 C63.54429915 47.85568401 71.59798915 56.21979047 79 65 C79.93378806 66.0829874 80.86880079 67.16491943 81.8046875 68.24609375 C87.68503202 75.04776972 93.51747977 81.87082004 99 89 C99.50789063 89.65564941 100.01578125 90.31129883 100.5390625 90.98681641 C109.1350316 102.1414601 116.63124927 113.4364468 123 126 C123.36319336 126.70866211 123.72638672 127.41732422 124.10058594 128.14746094 C132.33278276 144.36600617 137.60872934 161.15767723 141 179 C141.226875 180.12535156 141.45375 181.25070312 141.6875 182.41015625 C148.70515666 224.07749269 138.51061051 268.06396814 114.25 302.5 C103.93139616 316.25136772 92.48106076 328.32527337 79 339 C77.51693359 340.20849609 77.51693359 340.20849609 76.00390625 341.44140625 C46.18795935 365.43076131 10.29643558 376.14145431 -27.5625 376.375 C-28.33901917 376.38312714 -29.11553833 376.39125427 -29.91558838 376.39962769 C-44.72083854 376.51554109 -59.11960497 374.6500072 -73.4375 370.8125 C-74.59934814 370.5016748 -74.59934814 370.5016748 -75.78466797 370.18457031 C-110.75683325 360.35768089 -141.75560695 338.50062859 -164 310 C-164.78375 309.00613281 -165.5675 308.01226563 -166.375 306.98828125 C-188.70627579 277.76124443 -199.49679108 241.29326355 -199.3125 204.8125 C-199.30926727 203.65738922 -199.30926727 203.65738922 -199.30596924 202.47894287 C-199.25340031 190.7572867 -198.8033353 179.43246982 -196 168 C-195.80132324 167.16936035 -195.60264648 166.3387207 -195.39794922 165.48291016 C-192.25346711 152.6953496 -187.81471841 140.80143707 -182 129 C-181.67773438 128.33774414 -181.35546875 127.67548828 -181.0234375 126.99316406 C-171.31446009 107.24960329 -156.83188457 90.77715705 -142.65625 74.12890625 C-138.39530339 69.12134288 -134.20112261 64.05775065 -130 59 C-142.04491148 55.13127015 -154.08144802 52.24912304 -166.5625 50.1875 C-167.80918457 49.9810083 -169.05586914 49.7745166 -170.34033203 49.56176758 C-185.20184246 47.20369372 -199.79548949 46.76597015 -214.8125 46.75 C-215.81290314 46.74766357 -216.81330627 46.74532715 -217.84402466 46.74291992 C-231.06713731 46.73124986 -243.90470396 47.09287748 -256.96484375 49.34375 C-264.04251918 50.50876943 -264.04251918 50.50876943 -267 50 C-269.23225449 47.96172484 -270.91996201 46.16214711 -272.75 43.8125 C-273.23082031 43.23435547 -273.71164062 42.65621094 -274.20703125 42.06054688 C-276.80039175 38.86399528 -278.71530896 35.96611014 -280 32 C-272.24491301 29.97130377 -264.48987695 28.5214295 -256.5625 27.375 C-255.73016846 27.25213623 -254.89783691 27.12927246 -254.0402832 27.00268555 C-209.27253052 20.75010983 -162.78551991 25.74870299 -119.734375 38.8984375 C-116.32919542 40.0943089 -116.32919542 40.0943089 -114 40 C-112.14752002 37.84921406 -110.40677131 35.69104686 -108.6875 33.4375 C-108.21376953 32.82841797 -107.74003906 32.21933594 -107.25195312 31.59179688 C-104.06160476 27.46747511 -101.00875207 23.25828845 -98 19 C-90.55697903 21.39690506 -83.28162848 24.15262441 -76 27 C-77.1446875 28.299375 -77.1446875 28.299375 -78.3125 29.625 C-82.02147396 33.9344745 -85.49158701 38.42659273 -88.95239258 42.93603516 C-91.75857389 46.55539125 -94.7323592 49.77926314 -98 53 C-99.56702321 54.81170789 -101.10900585 56.64538172 -102.625 58.5 C-103.38039063 59.4178125 -104.13578125 60.335625 -104.9140625 61.28125 C-106.99645431 63.87908255 -106.99645431 63.87908255 -108.421875 66.42578125 C-110.50075213 69.81682092 -113.01467482 72.69611744 -115.625 75.6875 C-116.15843018 76.30471924 -116.69186035 76.92193848 -117.24145508 77.55786133 C-120.34756963 81.14047945 -123.49868467 84.67811594 -126.6875 88.1875 C-131.32141756 93.30481184 -135.69760616 98.60205562 -140 104 C-140.81597656 105.0209375 -141.63195312 106.041875 -142.47265625 107.09375 C-162.17982738 132.03504194 -176.91919402 162.66588773 -178 195 C-178.02578125 195.66483398 -178.0515625 196.32966797 -178.078125 197.01464844 C-179.5050011 238.83995409 -165.14967794 277.82627918 -136.75390625 308.5625 C-114.51494412 331.93258176 -85.69605971 347.14277245 -54 353 C-52.81921875 353.22429687 -51.6384375 353.44859375 -50.421875 353.6796875 C-12.0135469 359.85547594 28.26653089 349.92861861 59.8046875 327.41796875 C65.43530195 323.21842544 70.77033173 318.68535586 76 314 C76.77859375 313.30648438 77.5571875 312.61296875 78.359375 311.8984375 C90.2944124 300.61677806 99.69697869 286.63518186 107 272 C107.31662598 271.36803711 107.63325195 270.73607422 107.95947266 270.08496094 C125.90370479 233.52183103 126.75938275 193.0811987 113.75 154.9375 C110.54671986 145.897669 106.64257627 137.38512729 102 129 C101.47817139 128.05133057 101.47817139 128.05133057 100.94580078 127.08349609 C95.85016322 117.93466947 89.96067885 109.68844807 83.31689453 101.60498047 C82.08351156 100.10178068 80.86727169 98.5845608 79.65234375 97.06640625 C75.07246039 91.37184229 70.27807027 85.92196894 65.328125 80.546875 C63.38199408 78.41788614 61.49426568 76.25843347 59.625 74.0625 C51.52104124 64.75156866 42.46874215 56.37106699 32.984375 48.49609375 C32.45070313 48.05281738 31.91703125 47.60954102 31.3671875 47.15283203 C29.82600649 45.87549451 28.28030417 44.60361807 26.734375 43.33203125 C24 41 24 41 22.00390625 38.94921875 C17.01569775 34.09714069 10.60096713 30.46599966 4.5625 27.0625 C-1.2163678 23.79217184 -6.5741058 19.81852404 -12 16 C-8 10.66666667 -4 5.33333333 0 0 Z " fill="#80A452" transform="translate(657,427)"/>
<path d="M0 0 C4.43170173 1.51896368 8.03024076 3.92639809 11.8125 6.625 C12.40998047 7.04523438 13.00746094 7.46546875 13.62304688 7.8984375 C15.08520565 8.92779728 16.54304899 9.9632823 18 11 C16.01557657 15.20596475 13.36282291 18.61044219 10.5 22.25 C9.75169922 23.22453125 9.75169922 23.22453125 8.98828125 24.21875 C7.70815807 25.85236564 6.35894401 27.43134241 5 29 C4.34 29 3.68 29 3 29 C2.64228516 29.80824219 2.64228516 29.80824219 2.27734375 30.6328125 C0.6550698 33.63922845 -1.33713583 36.1798127 -3.4375 38.875 C-3.87271973 39.43509766 -4.30793945 39.99519531 -4.75634766 40.57226562 C-6.16685875 42.38470464 -7.58286525 44.19273639 -9 46 C-9.48839355 46.62422852 -9.97678711 47.24845703 -10.47998047 47.89160156 C-14.95963207 53.61601002 -19.45139037 59.3301052 -24 65 C-22.33424841 66.52183555 -20.66734329 68.0424085 -19 69.5625 C-18.071875 70.40941406 -17.14375 71.25632812 -16.1875 72.12890625 C-13.91635779 74.19187546 -11.60450144 76.19980072 -9.27734375 78.19921875 C-4.16017561 82.66777459 0.63361312 87.44957663 5.4375 92.25 C6.32759766 93.12785156 7.21769531 94.00570312 8.13476562 94.91015625 C13.44657699 100.21032742 18.34884799 105.67642511 23.01196289 111.55664062 C24.91510037 113.89565571 26.91194716 116.07619663 29 118.25 C37.35917587 127.59358979 43.28635786 139.08721854 47 151 C47.31839844 151.99257813 47.63679687 152.98515625 47.96484375 154.0078125 C54.05071549 176.83684288 50.58114619 200.85933433 39.06445312 221.20166016 C27.6849161 240.42681376 9.41235205 253.77394627 -12 259.875 C-34.16906137 265.48832003 -57.12901015 261.71010892 -77.0625 250.875 C-83.86315453 246.73898188 -89.38773683 241.58887874 -95 236 C-95.804375 235.23042969 -96.60875 234.46085938 -97.4375 233.66796875 C-111.92776682 218.90097808 -118.674488 197.58316509 -119.3125 177.25 C-118.69641757 148.14010502 -102.66233876 124.18923552 -83.35546875 103.5625 C-80.22346276 100.1552099 -77.33955131 96.57272845 -74.43359375 92.97265625 C-71.07854698 88.874437 -67.62353533 84.86534021 -64.16064453 80.8581543 C-58.69353996 74.96650952 -58.69353996 74.96650952 -55 68 C-55.72405029 67.72921631 -56.44810059 67.45843262 -57.1940918 67.17944336 C-59.94614081 66.02263932 -62.35080871 64.68628234 -64.89453125 63.12890625 C-78.12740506 55.15102541 -91.4912442 48.25220197 -105.64160156 42.05322266 C-108.47673936 40.7870959 -111.24206391 39.42539794 -114 38 C-112.25477062 33.94785821 -109.5771843 30.69396039 -106.875 27.25 C-106.40707031 26.64800781 -105.93914063 26.04601562 -105.45703125 25.42578125 C-104.30774993 23.94813384 -103.15428765 22.47373995 -102 21 C-96.66270824 21.50635845 -92.51296202 22.87907154 -87.75 25.375 C-86.73486328 25.89368652 -86.73486328 25.89368652 -85.69921875 26.42285156 C-79.22674519 29.7794928 -72.92118643 33.42967984 -66.64746094 37.14208984 C-62.42428568 39.63661258 -58.1729582 41.93721183 -53.76806641 44.09326172 C-51.44503184 45.28461084 -49.32372106 46.69022074 -47.1875 48.1875 C-44.69355181 49.9310567 -42.91370845 51.02876385 -40 52 C-39.66935547 51.22462891 -39.66935547 51.22462891 -39.33203125 50.43359375 C-37.4663251 47.02498692 -35.09839373 44.10093048 -32.6875 41.0625 C-32.21376953 40.45470703 -31.74003906 39.84691406 -31.25195312 39.22070312 C-28.3694141 35.56528087 -25.31725554 32.27465835 -22 29 C-20.43297679 27.18829211 -18.89099415 25.35461828 -17.375 23.5 C-16.61960937 22.5821875 -15.86421875 21.664375 -15.0859375 20.71875 C-13.00761294 18.11711742 -13.00761294 18.11711742 -11.55078125 15.58203125 C-9.54813295 12.24764705 -7.20495044 9.24888095 -4.8125 6.1875 C-4.34908203 5.59001953 -3.88566406 4.99253906 -3.40820312 4.37695312 C-2.27456544 2.91607981 -1.13761932 1.45777485 0 0 Z M-38 82 C-43.94606254 88.09943321 -49.37369496 94.62514305 -54.71875 101.25 C-57.06718968 104.08099578 -59.50909902 106.79383598 -62 109.5 C-81.7762609 131.04909417 -99.20018387 153.48677254 -98.12744141 183.90527344 C-97.15905009 199.82251004 -87.9348906 214.42856258 -76.6953125 225.2109375 C-61.69779549 238.04487829 -44.8433837 242.19577974 -25.49853516 241.21142578 C-9.62936156 239.86857799 5.10379236 230.99048523 15.48046875 219.17578125 C27.44236215 203.8477269 33.14108813 187.39942938 31 168 C26.99333567 145.2590497 11.81744893 127.26093157 -4.11303711 111.55078125 C-5.94113534 109.74641184 -7.7553942 107.92893633 -9.56835938 106.109375 C-16.406202 99.28874054 -23.40703145 92.97963659 -31 87 C-32.21201673 85.98354263 -33.42102801 84.96347348 -34.625 83.9375 C-36.61830251 81.89464555 -36.61830251 81.89464555 -38 82 Z " fill="#263606" transform="translate(663,455)"/>
<path d="M0 0 C-1.31238168 2.84258606 -2.76707176 5.09408245 -4.8203125 7.453125 C-5.35527344 8.071875 -5.89023437 8.690625 -6.44140625 9.328125 C-6.99699219 9.96234375 -7.55257812 10.5965625 -8.125 11.25 C-8.96998047 12.22453125 -8.96998047 12.22453125 -9.83203125 13.21875 C-11.21764364 14.815727 -12.60832754 16.40830122 -14 18 C-14.71728271 17.80889648 -15.43456543 17.61779297 -16.17358398 17.42089844 C-29.20519298 13.9789383 -42.17533577 10.72711509 -55.5 8.625 C-56.48154053 8.46999023 -57.46308105 8.31498047 -58.47436523 8.15527344 C-72.58490852 6.04703605 -86.57211381 5.76514423 -100.8125 5.75 C-101.81290314 5.74766357 -102.81330627 5.74532715 -103.84402466 5.74291992 C-117.06713731 5.73124986 -129.90470396 6.09287748 -142.96484375 8.34375 C-150.04251918 9.50876943 -150.04251918 9.50876943 -153 9 C-155.23225449 6.96172484 -156.91996201 5.16214711 -158.75 2.8125 C-159.23082031 2.23435547 -159.71164062 1.65621094 -160.20703125 1.06054688 C-162.80039175 -2.13600472 -164.71530896 -5.03388986 -166 -9 C-158.24491301 -11.02869623 -150.48987695 -12.4785705 -142.5625 -13.625 C-141.73016846 -13.74786377 -140.89783691 -13.87072754 -140.0402832 -13.99731445 C-97.22485901 -19.9772144 -39.19248127 -19.59624064 0 0 Z " fill="#263706" transform="translate(543,468)"/>
</svg>
